<svg xmlns="http://www.w3.org/2000/svg" viewBox="0 0 92.219 85.231"><path data-name="Trazado 3063" d="M17022.506,7331.014l.2-1.178a3.471,3.471,0,0,0,1.752.18,3.072,3.072,0,0,0-.686-6.091,4.241,4.241,0,0,0-1.762.621l-.381-1.075a5.5,5.5,0,0,1,2.266-.75,3.871,3.871,0,0,1,4.527,3.641,4.138,4.138,0,0,1-3.824,4.818,4.9,4.9,0,0,1-.656.043A4.571,4.571,0,0,1,17022.506,7331.014Zm-5.971.116c-2.648-.261-3.123-2.66-2.973-4.15a6.2,6.2,0,0,1,.115-.681l5.7.561a2.611,2.611,0,0,0-2.5-3.088,5.363,5.363,0,0,0-2.283.2l-.15-1.08a6.566,6.566,0,0,1,2.746-.235,3.786,3.786,0,0,1,3.586,4.48c-.229,2.3-1.687,4.018-3.83,4.018C17016.809,7331.151,17016.676,7331.143,17016.535,7331.13Zm.223-1.045a2.451,2.451,0,0,0,2.5-2.172l-4.3-.424A2.108,2.108,0,0,0,17016.758,7330.085Zm-7.535-.591.42-1.542-.068-.021a2.439,2.439,0,0,1-2.678,1.049,1.5,1.5,0,0,1-.385-.171l.406-1.336a2.324,2.324,0,0,0,.473.2,2.076,2.076,0,0,0,2.449-1.242,4.108,4.108,0,0,0,.266-.643l1.268-4.15,1.4.424-1.631,5.362c-.283.917-.506,1.713-.678,2.45Zm21.563-2.681-1.023-2.87a12.045,12.045,0,0,0-.783-1.794l1.268-.45.457.925.047-.017a3.044,3.044,0,0,1,1.941-1.979,2.324,2.324,0,0,1,3.131,1.371c.66,1.854-.625,3.457-3.6,4.5l.055.158a1.68,1.68,0,0,0,2.377,1.152,4.035,4.035,0,0,0,1.795-1.281l.648.805a5.054,5.054,0,0,1-2.279,1.581,3.851,3.851,0,0,1-1.307.253A2.983,2.983,0,0,1,17030.785,7326.813Zm1.91-5.02a2.028,2.028,0,0,0-1.4,1.944,1.687,1.687,0,0,0,.076.471l.48,1.332c1.529-.51,3.162-1.4,2.631-2.887a1.292,1.292,0,0,0-1.242-.964A1.52,1.52,0,0,0,17032.7,7321.792Zm3.453-2.262,1.211-.848,3.055,4.356,4.5-3.148-3.055-4.36,1.2-.84,6.516,9.3-1.2.839-2.725-3.894-4.5,3.153,2.729,3.889-1.217.852Zm-36.824,5.607.75-1.182-.031-.021a3.2,3.2,0,0,1-3.279-.36c-1.615-1.131-1.877-3.345-.459-5.375,1.684-2.4,3.975-2.566,5.547-1.469a2.873,2.873,0,0,1,1.328,2.489l.025.021,2.539-3.632,1.2.839-5.059,7.234c-.594.857-1.053,1.568-1.469,2.219Zm-1.764-6.146c-.939,1.34-1.033,2.977.252,3.876a2.361,2.361,0,0,0,2.887-.223,2.291,2.291,0,0,0,.428-.441l.807-1.144a3.891,3.891,0,0,0,.291-.536,2.28,2.28,0,0,0-.832-2.694,2.252,2.252,0,0,0-1.314-.441A3.229,3.229,0,0,0,16997.561,7318.991Zm-8.066-2.172c-1.73-2.021-.416-4.078.725-5.054a5.259,5.259,0,0,1,.557-.411l3.721,4.348a2.609,2.609,0,0,0,.33-3.962,5.42,5.42,0,0,0-1.785-1.439l.639-.882a6.645,6.645,0,0,1,2.15,1.73,3.781,3.781,0,0,1-.516,5.714,4.819,4.819,0,0,1-3.084,1.255A3.523,3.523,0,0,1,16989.494,7316.819Zm.879-.6a2.458,2.458,0,0,0,3.307.159l-2.814-3.286A2.109,2.109,0,0,0,16990.373,7316.22Zm57.16-2.21a36.044,36.044,0,0,0,7.979-13.06l1.324.458a37.309,37.309,0,0,1-8.293,13.569Zm-63.363-5.2a2.711,2.711,0,0,1,.029-2.754l-.012-.03-4.369,2.146-.656-1.328,8.842-4.352c.65-.321,1.383-.7,1.863-.989l.586,1.195-1.242.681.018.034a3.007,3.007,0,0,1,2.66,1.786c.869,1.769.047,3.864-2.176,4.96a5.209,5.209,0,0,1-2.312.587A3.491,3.491,0,0,1,16984.17,7308.81Zm3.914-4.63a2.549,2.549,0,0,0-.6.223l-1.271.625a2.789,2.789,0,0,0-.527.334,2.183,2.183,0,0,0-.6,2.681c.682,1.375,2.287,1.593,3.906.8,1.482-.732,2.348-2.056,1.641-3.5a2.2,2.2,0,0,0-2-1.229A2.5,2.5,0,0,0,16988.084,7304.179Zm-9.777-2.2a.917.917,0,1,1,1.135.647.91.91,0,0,1-.262.034A.89.89,0,0,1,16978.307,7301.982Zm2.9-1.567,7.859-2.159.395,1.431-7.865,2.159Zm76.461-1.1a3.98,3.98,0,0,1-3.418-4.844,3.868,3.868,0,0,1,4.887-2.981,3.968,3.968,0,0,1,3.422,4.823,3.732,3.732,0,0,1-3.824,3.114A5.491,5.491,0,0,1,17057.672,7299.313Zm-2.348-4.557c-.283,1.388.809,2.69,2.6,3.063,1.35.274,3.205-.047,3.557-1.761s-1.076-2.784-2.6-3.092a4.062,4.062,0,0,0-.861-.09A2.547,2.547,0,0,0,17055.324,7294.756Zm-75.395-.806a2.721,2.721,0,0,1,1.049-2.548v-.034l-4.854.377-.111-1.478,9.818-.762c.725-.056,1.547-.133,2.094-.227l.1,1.328-1.4.176,0,.034a3.013,3.013,0,0,1,1.807,2.643c.15,1.966-1.391,3.606-3.863,3.795-.176.017-.346.021-.514.021C16981.646,7297.275,16980.07,7295.8,16979.93,7293.951Zm4.707-2.865-1.408.107a2.584,2.584,0,0,0-.617.12,2.175,2.175,0,0,0-1.547,2.261c.119,1.529,1.529,2.331,3.328,2.193,1.645-.128,2.943-1.041,2.818-2.634a2.23,2.23,0,0,0-1.932-2.03,2.063,2.063,0,0,0-.369-.03C16984.826,7291.073,16984.73,7291.077,16984.637,7291.085Zm70.52-2.844,1.41-.154v-.034a3.014,3.014,0,0,1-1.766-2.677c-.119-1.966,1.457-3.577,3.928-3.727,2.7-.18,4.469,1.4,4.588,3.388a2.74,2.74,0,0,1-1.1,2.527v.034l4.857-.291.09,1.478-9.836.591c-.719.042-1.541.107-2.094.193Zm3.727-5.1c-1.648.094-2.959.985-2.865,2.583a2.229,2.229,0,0,0,1.9,2.06,2.625,2.625,0,0,0,.643.03l1.408-.086a2.58,2.58,0,0,0,.621-.1,2.181,2.181,0,0,0,1.586-2.236c-.086-1.444-1.332-2.262-2.982-2.262C17059.094,7283.131,17058.986,7283.136,17058.883,7283.144Zm-74.893,4.283a3.973,3.973,0,0,1-3.508-4.763,3.86,3.86,0,0,1,4.84-3.088,3.983,3.983,0,0,1,3.5,4.785,3.766,3.766,0,0,1-3.859,3.161A5.177,5.177,0,0,1,16983.99,7287.427Zm-2.424-4.527c-.322,1.722,1.125,2.763,2.646,3.045,1.756.33,3.268-.433,3.533-1.854.262-1.392-.852-2.677-2.654-3.016a4.413,4.413,0,0,0-.8-.073A2.5,2.5,0,0,0,16981.566,7282.9Zm72.318-3.765,7.895-2.021.367,1.435-7.9,2.021Zm9.406-1.679a.88.88,0,0,1,.664-1.088.9.9,0,0,1,1.123.664.881.881,0,0,1-.67,1.114.933.933,0,0,1-.26.039A.891.891,0,0,1,17063.291,7277.456Zm-76.658-.214a37.362,37.362,0,0,1,9.482-14.786l.969,1.019a35.84,35.84,0,0,0-9.115,14.2Zm66.314-1.135,1.25-.664-.018-.03a3.009,3.009,0,0,1-2.625-1.833c-.844-1.786.021-3.864,2.262-4.921,2.445-1.169,4.674-.355,5.521,1.443a2.726,2.726,0,0,1-.082,2.758l.014.03,4.406-2.073.631,1.341-8.918,4.2c-.656.309-1.393.673-1.877.955Zm1.566-6.121c-1.494.707-2.385,2.018-1.7,3.465a2.224,2.224,0,0,0,2.527,1.212,2.639,2.639,0,0,0,.607-.21l1.277-.6a2.752,2.752,0,0,0,.539-.326,2.188,2.188,0,0,0,.643-2.668,2.244,2.244,0,0,0-2.143-1.3A4.2,4.2,0,0,0,17054.514,7269.986Zm-6.8-2.424a3.782,3.782,0,0,1,.617-5.706c1.893-1.567,4.309-1.683,5.82.146,1.691,2.052.338,4.086-.812,5.042a5.3,5.3,0,0,1-.566.4l-3.645-4.407a2.6,2.6,0,0,0-.4,3.954,5.333,5.333,0,0,0,1.76,1.473l-.654.87A6.589,6.589,0,0,1,17047.717,7267.562Zm2.24-5.191,2.754,3.337a2.116,2.116,0,0,0,.553-3.119,2.016,2.016,0,0,0-1.605-.753A3.228,3.228,0,0,0,17049.957,7262.37Zm-55.746-8.583,1.211-.818,2.66,3.937,3.189-2.154,1.359-.917-2.656-3.937,1.23-.831,6.348,9.41-1.23.831-2.977-4.412-4.553,3.071,2.977,4.412-1.211.818Zm42.484,8.284,5.184-7.145c.613-.844,1.08-1.546,1.508-2.193l1.08.779-.768,1.174.025.017a3.22,3.22,0,0,1,3.277.42c1.6,1.156,1.816,3.375.359,5.384-1.717,2.373-4.018,2.5-5.568,1.371a2.875,2.875,0,0,1-1.285-2.51l-.025-.021-2.6,3.585Zm6.354-6.086a2.269,2.269,0,0,0-.437.428l-.822,1.131a3.805,3.805,0,0,0-.3.535,2.294,2.294,0,0,0,.785,2.707c1.268.921,2.758.42,3.854-1.1.961-1.324,1.084-2.96-.184-3.876a2.2,2.2,0,0,0-1.3-.416A2.492,2.492,0,0,0,17043.049,7255.984Zm-35.129.034c-.629-1.868.686-3.448,3.676-4.437l-.055-.159a1.679,1.679,0,0,0-2.357-1.195,4.051,4.051,0,0,0-1.814,1.25l-.631-.818a5.029,5.029,0,0,1,2.3-1.538c2.359-.8,3.479.621,4,2.167l.977,2.887a11.179,11.179,0,0,0,.75,1.808l-1.277.428-.439-.934-.043.017a3.068,3.068,0,0,1-1.975,1.944,2.974,2.974,0,0,1-.939.163A2.269,2.269,0,0,1,17007.92,7256.018Zm1.35-.634a1.312,1.312,0,0,0,1.773.9,2.029,2.029,0,0,0,1.436-1.923,1.559,1.559,0,0,0-.072-.471l-.451-1.34C17010.414,7253.028,17008.766,7253.885,17009.27,7255.384Zm21.7.977,1.727-5.333c.295-.917.535-1.7.719-2.441l1.234.4-.441,1.538.061.021a2.436,2.436,0,0,1,2.693-1,1.6,1.6,0,0,1,.387.176l-.43,1.332a2.034,2.034,0,0,0-2.937.994,3.649,3.649,0,0,0-.279.634l-1.336,4.133Zm-4.4-.673a3.781,3.781,0,0,1-3.5-4.544c.283-2.441,1.945-4.193,4.3-3.923,2.643.313,3.074,2.715,2.9,4.206a5.576,5.576,0,0,1-.127.677l-5.686-.66a2.609,2.609,0,0,0,2.451,3.131,5.308,5.308,0,0,0,2.287-.159l.129,1.084a5.971,5.971,0,0,1-1.777.248A8,8,0,0,1,17026.566,7255.688Zm-1.979-5.3,4.3.5a2.11,2.11,0,0,0-1.764-2.63c-.09-.009-.18-.018-.266-.018A2.524,2.524,0,0,0,17024.588,7250.39Zm-9.193,1.392a4.144,4.144,0,0,1,3.912-4.754,4.9,4.9,0,0,1,2.086.21l-.219,1.174a3.378,3.378,0,0,0-1.748-.21,3.071,3.071,0,0,0,.578,6.1,4.253,4.253,0,0,0,1.77-.591l.363,1.079a5.338,5.338,0,0,1-2.277.711c-.182.017-.357.025-.531.025A3.847,3.847,0,0,1,17015.395,7251.782Z" transform="translate(-16975.479 -7246.493)" fill="#abd58a" stroke="rgba(0,0,0,0)" stroke-width="1"/></svg>