<svg xmlns="http://www.w3.org/2000/svg" viewBox="0 0 156.501 56.67">
					<path d="M2310.218,7054.671a4,4,0,0,0-.414.068c-1.8,0-2.7-.09-2.7-.279a3.344,3.344,0,0,1-.9-.689v-1.315l.07-.347h-.139V7044.7l.139-.206v-.069l-.139-.21V7037.5l.347.071v-.071c0-.092-.116-.137-.347-.137v-4.776c0-.08.116-.149.347-.21a.306.306,0,0,0-.347-.343v-2.494c0-.092.069-.137.208-.137v-.069a.183.183,0,0,1-.208-.206q0-1.23-.069-5.263l.069-.14a.545.545,0,0,1-.069-.276v-.552c0-.324.092-.484.277-.484v-.069l-.277-.278v-1.591c0-.68-.023-1.467-.069-2.354a2.236,2.236,0,0,1,.208-1.038,1.282,1.282,0,0,1-.208-.829v-1.039c.011-.092.06-.14.138-.14a.538.538,0,0,1,.069.209h.07a.534.534,0,0,1,.069-.275c-.069,0-.139-.071-.208-.21a.574.574,0,0,1,.208-.067v-.14a.121.121,0,0,0-.139-.136h-.069v.136H2306v-.415a.062.062,0,0,1,.069-.069l-.069-.14v-.829c.138,0,.208-.045.208-.139H2306V7011.9a8.433,8.433,0,0,0-.071-1.038,6.926,6.926,0,0,1,.765-3.045,1.033,1.033,0,0,1,.552.208c0-.092.07-.139.208-.139v-.069a.63.63,0,0,0-.416-.347,2.144,2.144,0,0,1,1.593-1.038l-.071-.139v-.069a4.011,4.011,0,0,1,1.525-.345h2.629a.79.79,0,0,1,.414.137.812.812,0,0,1,.416-.137h1.939a4.207,4.207,0,0,1,3.047,1.591,5,5,0,0,1,.967,2.978v3.32a.122.122,0,0,1-.137.139.124.124,0,0,0-.138-.139h-.07l-.069.347a.44.44,0,0,1,.414.279v1.243a.061.061,0,0,1-.069.069l.069.14v2.146a.122.122,0,0,1-.137.137.123.123,0,0,0-.138-.137h-.21v.069c.116,0,.279.16.485.483v2.491c0,.094-.092.139-.275.139l.275.278v.9c0,.091-.159.16-.485.205v.069c.14,0,.21.024.21.069l.138-.069c.088.014.137.059.137.141v1.312l-.069.144-.137-.069c-.069,0-.139.069-.208.207.277.091.414.184.414.276v1.245a.536.536,0,0,1-.069.276.551.551,0,0,1,.069.276.122.122,0,0,1-.137.139l.067.14-.137.207c.069,0,.137.069.206.208v.622c0,.094-.069.14-.206.14l.206.276v4.22c0,.1-.092.139-.275.139a1.312,1.312,0,0,1,.275.555.062.062,0,0,1-.069.071l.069.345v1.8c0,.1-.118.174-.345.208,0,.057.115.175.345.347v4.014c0,.071-.069.139-.206.208l-.346-.069v-.067l.208-.279a1.4,1.4,0,0,0-.763-.414v.139c.011.092.058.139.141.139l.139-.069.067.139-.483.624.553.345c.139,0,.206-.094.206-.275h.14l.139.067v-.137h.206v4.083l-.069.139c-.067,0-.206-.118-.416-.349h-.139c.161.371.369.555.624.555v.691a.549.549,0,0,1-.069.279,1.155,1.155,0,0,1,.139.553v3.392c0,.555-.069.83-.206.83h-.138v.137c.227,0,.344.047.344.141v2.631h-.414v.067l.139.208c-.094.011-.139.056-.139.137l.139.071h.137v-.278c.092.014.139.059.139.14v.828c-.047.14-.187.211-.414.211h-3.807a.428.428,0,0,1-.483-.486v-1.177l.208-.277c-.141,0-.208-.045-.208-.137a.563.563,0,0,1,.277-.069c0-.069-.094-.14-.277-.208-.049-1.164-.071-2.09-.071-2.768v-2.631l.348-.067c0,.047.021.067.067.067l-.067.137v.069h.206c0-.182.114-.273.347-.273v-.071l-.9-.555v-.275h.21c0-.094-.072-.139-.21-.139v-.624a10.1,10.1,0,0,1,.071-1.591c-.049-.61-.071-1.258-.071-1.937v-2.839h.071l.277.208a.784.784,0,0,1,.484-.208l.139.069.067-.137a1.994,1.994,0,0,1-1.038-.349v-.067l.138-.208a.123.123,0,0,1-.138-.139V7036.6h.138c.092.326.186.487.277.487h.07v-.208c-.129-.414-.219-.622-.275-.622h-.21v-.069a.675.675,0,0,1,.071-.347l-.071-.416v-.275c0-.047.022-.069.071-.069l-.071-.141v-2.284c0-.079-.206-.193-.622-.345a.061.061,0,0,0-.069-.069.534.534,0,0,0-.069.208h-2.7l-.482.067v2.978l-.071.139-.345-.139.069-.137v-.071a.486.486,0,0,1-.137-.275h-.142l.07.139c-.092.011-.137.056-.137.137.09.014.137.059.137.139l-.07.139c.092,0,.142.069.142.208h.343c.092.012.141.057.141.139v.208a.062.062,0,0,1-.071.069l.071.139v17.58l.069.485c-.2.23-.339.345-.416.345A.573.573,0,0,1,2310.218,7054.671Zm.763-26.786h1.387a3.282,3.282,0,0,0,1.173.623c0-.094.1-.141.279-.141l-.071-.347a1.171,1.171,0,0,0-.554.141c0-.092-.116-.141-.343-.141v-.136h1.729c.137-.046.206-.185.206-.417v-1.038c0-.092.163-.139.485-.139v-.068c-.3,0-.463-.069-.485-.207V7023.8a.063.063,0,0,1,.071-.071l-.071-.136v-3.877c0-.23-.024-.576-.069-1.038h.141l.208.138h.069a.509.509,0,0,1,.277-.138c.333.047.515.071.551.071v-.071c0-.093-.183-.159-.551-.208v-.069l.067-.137-.483-.348v-.139c0-.1.114-.172.345-.207,0-.1-.186-.242-.555-.417v-1.937l.138.069c.186-.069.277-.139.277-.209a.457.457,0,0,1-.485-.344v-.21c0-.54.022-1.095.069-1.66a4.394,4.394,0,0,1-.069-.83.124.124,0,0,0,.141-.139.122.122,0,0,1-.141-.139v-.969l.141-.208-.277-.275h-.971a.8.8,0,0,1-.485-.208c.047-.139.1-.208.141-.208a.723.723,0,0,1-.071-.347,5.1,5.1,0,0,1-.759.208q-.3-.483-.416-.483c-.092.011-.137.056-.137.139v.137c.182,0,.321.186.414.555a.507.507,0,0,0,.21.069v.139H2311.4l-.414-.069c-.067,0-.186.092-.345.277a.06.06,0,0,0,.067.067.58.58,0,0,1-.067.277c.043.474.067.843.067,1.107v.208c0,.092-.092.137-.275.137v.071c.184,0,.275.045.275.137v5.261c0,.093-.137.139-.416.139l.073.14-.142.067h-.067a1.809,1.809,0,0,1-.624-.207l-.068.14c-.418-.045-.624-.114-.624-.209v-.069h.206v-.068h-.485c-.069,0-.137.068-.206.207v.07c.184,0,.277.024.277.069a.53.53,0,0,1,.208-.069c.186.069.275.137.275.206a.567.567,0,0,0-.069.277.535.535,0,0,0,.281-.069.5.5,0,0,0,.272.069h.139c0-.185.21-.277.627-.277l.068.138.139-.066c.092.011.137.056.137.137v.277a2.237,2.237,0,0,0,.069.555c-.047.415-.094.622-.137.622a3.8,3.8,0,0,1,.137.97c-.094.012-.137.057-.137.14v.066l.137.208v.694a.533.533,0,0,1-.069.274.548.548,0,0,1,.069.278v.066c0,.049-.022.069-.069.069l.069.141v.345h-.275v.069c.182.024.275.094.275.208v.764l-.137.207c.09.012.137.057.137.137v.14l-.137.207v.208a1.209,1.209,0,0,1,.208.761l-.071.483a2.428,2.428,0,0,1,.071.624l-.071.139a.533.533,0,0,1,.071.277l-.416-.208v.068c0,.069.069.14.208.21l.137-.07C2310.773,7027.7,2310.844,7027.885,2310.981,7027.885Zm-35.917,26.854c-.23,0-.577-.024-1.036-.068v-.141h-.557c0,.095-.022.141-.067.141a.571.571,0,0,0-.21-.071.52.52,0,0,0,.069-.205.571.571,0,0,1-.069-.21.709.709,0,0,1,.348-.068v-.07h-.418a1.174,1.174,0,0,0-.553.277h-.139c-.277-.159-.414-.277-.414-.347l.069-.139q-1.577,0-2.147-3.182c0-.392-.024-.81-.067-1.245.043-.58.067-1.292.067-2.146v-.21h.139v.21h.14a.123.123,0,0,0,.137-.141c-.056,0-.219-.182-.483-.553v-1.105l.067-.141.139.069h.14v-.137a.123.123,0,0,0-.14-.139.122.122,0,0,1-.139.139l-.067-.139v-.416c0-.23.022-.577.067-1.038a1.6,1.6,0,0,1,.486.139.521.521,0,0,1,.209-.069.515.515,0,0,0,.2.069.6.6,0,0,0-.414-.555h-.07a.754.754,0,0,1,.208.416h-.208a.609.609,0,0,0-.416-.139l-.067-2.354c.043-1.26.067-2.021.067-2.284l-.067-.137a2.211,2.211,0,0,0,.067-.489c0-.249-.024-.9-.067-1.934.126,0,.264-.161.414-.487v-.137a.532.532,0,0,1-.208-.069.554.554,0,0,0-.07.206h-.137v-28.447l.067-.137c-.045,0-.067-.022-.067-.069a.552.552,0,0,1,.276-.067v-.139c-.184,0-.276-.047-.276-.139v-.624c0-.067.092-.161.276-.275h.759l.279.208h.069a.182.182,0,0,1,.208-.208c.094,0,.139.022.139.067l.485-.067h2.005a.461.461,0,0,1,.487.275v2.146a.121.121,0,0,1-.138.139l-.279-.206h-.135c-.1.011-.141.056-.141.139v.067a.648.648,0,0,1,.414.208l.208-.139h.071v5.121l-.832-.069v.208h.071a.527.527,0,0,0,.274-.069c.324.058.487.127.487.207v12.183l-.138.207.138.208v.068a1.933,1.933,0,0,0-.279.348c.186,0,.279.048.279.139a.063.063,0,0,0-.071.068.771.771,0,0,0-.347-.14v.071l.139.208v.208c0,.092-.09.136-.273.136v.07c.135,0,.251.094.345.275l-.071.141c.186,0,.279.045.279.139a.545.545,0,0,1-.071.208,5.321,5.321,0,0,1,.071.759v.555l-.071.139-.347-.069h-.069v.139h.348c.094.012.138.059.138.139v.347c0,.092-.071.137-.208.137v.069c.137,0,.208.049.208.139V7031l-.138.208c.094.012.138.059.138.137v3.047a.573.573,0,0,0,0,.553v2.562c0,.059-.118.152-.346.277a1.4,1.4,0,0,0-.555-.208c0,.069.14.208.414.416a1.107,1.107,0,0,1,.487-.139v2.284c0,.092-.118.141-.346.141v.065c.229.036.346.1.346.208v2.354l-.071.416a.7.7,0,0,1,.071.347v.069l-.138.206c.094.014.138.059.138.139v4.848a.553.553,0,0,1-.071.277.535.535,0,0,1,.071.275v.622a1.3,1.3,0,0,0,.9.483.937.937,0,0,1-.349.832.526.526,0,0,1,.071.208l-.139.069h-.14l-.208-.139h-.135c0,.08.135.194.412.349a2.51,2.51,0,0,0-.137.689.723.723,0,0,1,.347-.139.588.588,0,0,0,.208.069l-.14-.208c0-.092.071-.139.21-.139a1.312,1.312,0,0,1-.21-.414c0-.324.1-.485.279-.485a.542.542,0,0,1,.275-.071.523.523,0,0,0,.277.071v-.139c-.322,0-.487-.114-.487-.345a.913.913,0,0,0,.209-.485h2.49c.139-.045.21-.184.21-.416v-3.944q0-5.09-.071-13.5a8.885,8.885,0,0,1-.067-1.109.544.544,0,0,0,.067-.274.545.545,0,0,1-.067-.209c.034-.184.08-.277.138-.277,0-.045-.024-.067-.071-.067q-.067-1.627-.067-2.423v-5.605c.011-.095.056-.139.138-.139l.139.205.139-.066.345.066h.067v-.066a2.285,2.285,0,0,0-.828-.348v-5.883a.06.06,0,0,1,.067-.067l-.067-.139v-.763c0-.092.067-.139.206-.139v-.139c-.139,0-.206-.046-.206-.137v-.349c0-.322.067-.483.206-.483v-.139c-.139,0-.206-.114-.206-.346v-3.113c0-.429.022-1.027.067-1.8a.55.55,0,0,1-.067-.206.571.571,0,0,0,.067-.277c0-.047-.022-.069-.067-.069l.067-.485v-1.452c0-.071.094-.163.279-.277h4.014c.058,0,.17.114.346.345v3.322h-.21l.21.277v6.645a.122.122,0,0,1-.137.139l.064.138v.414l-.137.21c.094.01.137.057.137.138v.276c0,.138-.021.209-.064.209l.064.344v.833a.119.119,0,0,1-.137.136.55.55,0,0,0-.274-.066l-.069.136c.32,0,.48.048.48.141v9.967a3.923,3.923,0,0,0-.69,1.244h.139l.487-.553h.064q.143,10.453.142,11.28h-.142l-.137-.069v.069c0,.141.094.21.279.21v6.573a3.758,3.758,0,0,1-.069.626.979.979,0,0,1,.069.483v.275q0,3.393-2.423,4.568a4.483,4.483,0,0,1-2.007.555Zm-16.124-.069-.347.069h-3.322a3.742,3.742,0,0,1-.622-.069.775.775,0,0,1-.343.062l0,.006h-.073l-.069,0-.021,0h-.667v0H2252.3v-.14h.208v-.069h-.276c0,.14-.163.209-.487.209h-.483c-.416,0-.622-.232-.622-.693v-1.8h.067a.518.518,0,0,0,.212.069l.068-.139-.347-.137q0-.07.067-.07l-.067-.346v-2.768l.137-.208a.122.122,0,0,1-.137-.141v-.553c0-.092.137-.137.414-.137v-.208l-.347.067-.067-.139v-.275l.067-.347a.06.06,0,0,1-.067-.067.529.529,0,0,1,.206-.071l.624.071c0,.092-.139.137-.416.137v.208c.013.092.058.137.139.137a5.537,5.537,0,0,1,.762-.067h.069v-.141h-.347a.5.5,0,0,0-.138-.273.532.532,0,0,1,.275-.071v-.206h-.208l-.345-.071.069.139v.071a.793.793,0,0,1-.412-.139.125.125,0,0,1-.142.139.122.122,0,0,1-.137-.139v-.416c0-.463-.025-1.152-.07-2.078a.551.551,0,0,1,.206-.067v-.137a1.548,1.548,0,0,1-.206-.487l.07-.416q-.071-1.034-.07-1.729v-.485c.184,0,.276-.047.276-.137v-.208h-.069a.519.519,0,0,1-.206.069V7039.3l.07-.416a.537.537,0,0,1-.07-.277.062.062,0,0,0,.07-.069c-.047,0-.07-.021-.07-.067a.541.541,0,0,1,.206-.071v-.139l-.137.071-.07-.139v-2.423c.01-.092.056-.139.137-.139v.069a.551.551,0,0,1,.212-.069v-.069a.368.368,0,0,1-.418-.416v-1.866h.139v.137h.347l.067-.277-.135.069h-.142c-.069,0-.137-.069-.206-.208h.206v-.069h-.206a.061.061,0,0,1-.069.069V7031l.139-.208a.123.123,0,0,1-.139-.139v-.9c.276,0,.418-.048.418-.141-.142,0-.279-.139-.418-.414v-.97a6.061,6.061,0,0,0-.069-.9,2.1,2.1,0,0,0,.069-.485,3.661,3.661,0,0,0-.069-.555.572.572,0,0,1,.069-.277c-.045-.472-.069-.841-.069-1.107v-.829c.011-.093.056-.139.138-.139a1.147,1.147,0,0,1-.138-.554V7022h.069l.345.208h.141v-.139a2.51,2.51,0,0,1-.555-.207v-.483l.208-.278v-.069a1.28,1.28,0,0,1-.208-.831v-3.667l.414.069h.277v-.069a.836.836,0,0,1-.691-.277v-2.631h.138c.427.335.656.565.691.693l-.069.139a2.025,2.025,0,0,1,.414.691h.071l.137-.07c-.07-.554-.208-.829-.414-.829v-.069c0-.092.069-.139.206-.139v-.208l-.9-.208v-.137l.069-.141a.12.12,0,0,1-.137-.137v-.278h.279a.6.6,0,0,0,.068-.274c-.21,0-.394-.163-.555-.485v-.832h.069l.139.07c.011-.093.058-.138.137-.138a.554.554,0,0,1,.21.067,4.97,4.97,0,0,0,.759-.137c-.033-.186-.217-.277-.552-.277,0,.114-.251.208-.761.277v-1.315h.555v-.139c-.141,0-.21-.047-.21-.139l.142-.208h-.142l-.345.069v-1.523l.138-.206a.122.122,0,0,1-.138-.139v-1.177a.674.674,0,0,1,.691-.347h4.5a5.123,5.123,0,0,0,1.038.208c0-.137.024-.208.069-.208l.969-.069.347.069c.335-.045.517-.069.553-.069a5.2,5.2,0,0,1,3.393.832c.783.5,1.177.886,1.177,1.175q.256,0,.622,1.246c-.094.013-.141.058-.141.139l.141.208v.139c-.114.232-.208.347-.278.347a.537.537,0,0,1-.067-.208.826.826,0,0,0,.137-.416h-.069l-.345.069.137.208c-.414.347-.624.577-.624.693-.09.011-.137.055-.137.137h.07a2.121,2.121,0,0,0,1.313-.414h.071v5.884a.062.062,0,0,1-.071.069.064.064,0,0,0,.071.069c.045,1.4.067,2.445.067,3.111v.209a4.612,4.612,0,0,1-.067.832,4.556,4.556,0,0,1,.067.829v1.316a1.688,1.688,0,0,1-.138.759l-.277-.138v.069c.277.186.416.323.416.417q-.067,3.7-.067,4.357a3.924,3.924,0,0,1-1.66,2.284h-.208v.071a3.836,3.836,0,0,1,1.936,3.528v9.83c-.23,0-.344.047-.344.139a.733.733,0,0,0,.344.071v1.175l-.138.208v.208h-.066v.069c0,.09.066.137.2.137v.553a.121.121,0,0,1-.138.139c-.092,0-.137-.069-.137-.206h-.208l.068.345h.416v1.939c0,.092-.09.137-.275.137v.139c.185,0,.275.049.275.141v.967a.722.722,0,0,0,.07.347q0,1.523-.345,1.523c-.234.011-.345.082-.345.21l.276.273v.069q-1.208,2.493-4.707,2.492A.062.062,0,0,1,2258.941,7054.67Zm-.622-4.432c.367,0,.553.1.553.277.232-.045.345-.092.345-.137v-.208h.071a12.769,12.769,0,0,1,.07-1.729q-.067-4.1-.07-6.783v-7.823h.07l.137.071.069-.137a.539.539,0,0,0-.276-.071v-.414a1.015,1.015,0,0,0-.208-.765l-.691.071h-.83l-.208-.141-.208.141h-.209a.063.063,0,0,1-.07-.071l-.137.071h-1.385l-.069.345a.562.562,0,0,0,.069.277c-.045.324-.069.51-.069.557.047.689.069,1.2.069,1.52h-.139l-.206-.139h-.139c.094.23.161.347.208.347a.554.554,0,0,1,.206-.069l.069.139v.693c0,.691-.116,1.036-.344,1.036l.069.139v.069c0,.244-.069.381-.208.416h-.071c-.036,0-.1-.043-.172-.123l-.062.2a.436.436,0,0,1,.1.264l-.227.172-.12.4c.208-.106.525-.249.969-.435a.063.063,0,0,0,.069.071.559.559,0,0,0-.069.208v.206a1.956,1.956,0,0,0-.9.277.062.062,0,0,0-.071-.069l-.067.139c.68.186,1.051.369,1.105.553v7.544a.122.122,0,0,1-.139.139c0-.069-.067-.139-.206-.206a.121.121,0,0,1-.139.137h-.071a.12.12,0,0,1-.137-.137v-.069a.248.248,0,0,0,.208-.141.512.512,0,0,1-.071-.2h-.137c0,.163-.1.241-.287.259l.006.257a1.6,1.6,0,0,0,.281.174c0,.1.23.163.691.208v.9a.121.121,0,0,1-.139.137l-.137-.069-.069.141c.229.056.344.125.344.208v.067l-.069.141c.094.011.139.054.139.138v.692c0,.033.069.1.208.206l.348-.071Zm-3.965-3.365.021-.094h-.022Zm.5-28.749c.186.023.277.093.277.207v6.022c0,.52.024,1.188.067,2.007-.043.277-.092.417-.137.417l.069.136c0,.1-.069.139-.21.139v.071l.277.068v.693c0,.066.069.136.208.207h.83l.208.138.208-.138h2.215c.279,0,.416-.186.416-.553v-.693l.206-.277v-.069c-.137,0-.206-.045-.206-.139v-.347l-.071-.689.141-.068c0,.068.092.185.277.344a.694.694,0,0,1,.345-.069c0-.09-.186-.159-.554-.206a.511.511,0,0,0-.137-.278v-2.7q0-.813-.071-2.562a.564.564,0,0,1,.277-.069v-.139c-.137,0-.206-.044-.206-.14V7017.5a.063.063,0,0,1,.07-.069,3.725,3.725,0,0,1-.141-1.244v-4.36a.064.064,0,0,1,.071-.071l-.071-.137v-1.04a.12.12,0,0,0-.137-.137h-1.729a5.615,5.615,0,0,1-.763-.069l-.139.069-.414-.208h-.139c0,.161-.208.255-.624.277l-.137.206v7.2l-.069.141-.141-.069h-.067Zm-11.081,36.615c-.092,0-.139-.068-.139-.209h-.138c0,.141-.047.209-.141.209h-3.182a.466.466,0,0,1-.481-.279v-4.5c0-.045.02-.069.065-.069l-.065-.139V7043.8l-.071-.416a.726.726,0,0,0,.071-.347v-.967c.008-.094.056-.139.137-.139V7042l.138-.069h.139l.137.069.071-.139c-.416,0-.622-.047-.622-.141v-.206c0-.116.09-.186.275-.208a.123.123,0,0,0-.138-.139.063.063,0,0,1-.071.069,1.161,1.161,0,0,1-.137-.555v-.067a2.32,2.32,0,0,1,.071-.624l-.071-.347c.045-.814.071-1.508.071-2.076v-.414c0-.139.02-.208.065-.208l-.065-.277c0-.729-.026-2.179-.071-4.36.045-.888.071-1.465.071-1.731l-.071-.275a6.078,6.078,0,0,0,.071-.9v-.761c0-.417-.026-.876-.071-1.386a.516.516,0,0,1,.071-.209c-.049-.771-.071-1.369-.071-1.8v-3.946c0-.416.022-.876.071-1.386a4.135,4.135,0,0,1-.071-1.038l.137-.21c-.092,0-.137-.042-.137-.135v-.348a.938.938,0,0,1,.071-.483,3.386,3.386,0,0,1-.071-.622v-.485c0-.322.022-.483.071-.483l-.071-.832v-5.19a2.046,2.046,0,0,1,.071-.555,2.151,2.151,0,0,1-.071-.555v-2.213a.676.676,0,0,1,.346-.693h2.213a3.683,3.683,0,0,0,.7-.069,2.38,2.38,0,0,0,.62.069h.138a.556.556,0,0,0,.279-.069c.319,0,.483.208.483.624v2.49h-.069a2.019,2.019,0,0,0-.832-.483c.058.324.335.622.832.9l.069.139v1.66l-.14.208c.092.013.14.058.14.139v5.19h-.416c-.094.013-.138.058-.138.141.369,0,.554.069.554.208v5.6a6.569,6.569,0,0,1-.069.97,4.814,4.814,0,0,1,.069.9v2.975a3.15,3.15,0,0,1-.763.554,2.938,2.938,0,0,0,.693-.209l.069.141v2.907l-.347.276c.229.036.347.1.347.206v6.853c0,.094-.069.139-.21.139v.141c.14,0,.21.045.21.137v.557l.067.483a.579.579,0,0,1-.277.069V7040c.184.024.277.092.277.208v1.107q0,.59-.067,1.868l-.14.069-.276-.208h-.208a.511.511,0,0,1-.277.139v.069a3.012,3.012,0,0,1,.9.416h.067v.069a.123.123,0,0,1-.137.141,1.161,1.161,0,0,1,.137.553v1.8a.122.122,0,0,1-.137.139.743.743,0,0,1-.277-.483h-.137c0,.139-.1.208-.279.208v.069a1.664,1.664,0,0,1,.83.416v2.492c0,.067-.067.139-.208.208h-.069l-.137-.069c0,.092-.069.137-.208.137a.548.548,0,0,0-.208-.067l-.067.138v.138a.844.844,0,0,1,.761.414c.09,0,.137.024.137.071,0,.369-.022.854-.067,1.452.045.472.067.843.067,1.107-.067,0-.137.092-.208.277.071,0,.14.067.208.206v.969c0,.461-.185.693-.551.693Zm-18.277,0a5.773,5.773,0,0,1-2.49-.623v-.14a2.068,2.068,0,0,0,.483-.067.522.522,0,0,1,.208.414l.279.071a.559.559,0,0,1,.2-.071v-.067h-.275v-.21c.23,0,.347-.022.347-.069,0-.079-.137-.242-.418-.484v-.138h.071l.484.347.347-.553c-.025-.324-.115-.485-.276-.485v-.139c.369-.092.551-.23.551-.416a.541.541,0,0,0-.551-.414c0,.069-.1.161-.279.276l-.2-.138h-.071v.071a.869.869,0,0,1,.275.48c-.066,0-.137.07-.2.209a.482.482,0,0,0,.2.069c0,.046-.2.186-.622.414v-.069l.07-.137-.139-.069h-.277l.071.347-.139.067.067.139a.121.121,0,0,1-.137.138h-.069a1.946,1.946,0,0,0-.832-.829h-.206c-.1.015-.138.058-.138.139a2.057,2.057,0,0,0,.761.275v.071a.574.574,0,0,1-.208.067v.139l.139.21.138-.072c.182.036.276.081.276.14a.55.55,0,0,0-.067.206h-.208a2.244,2.244,0,0,1-.9-.967c-.289,0-.592-.693-.9-2.076a6.317,6.317,0,0,1-.067-.9v-.345l.067-.138a1.217,1.217,0,0,0,.483.205,2.772,2.772,0,0,1-.551-.483v-.347l.138-.206a.122.122,0,0,1-.138-.137v-.143c.011-.092.058-.137.138-.137l-.071-.137v-.069c.4.043.659.069.762.069l.071-.139-.139-.069a.063.063,0,0,0-.071.069l-.345-.069H2221l-.141.069-.067-.139v-.208c0-.141.024-.21.067-.21l-.067-.345v-3.112a.676.676,0,0,1,.346-.7h4.15c.184,0,.277.279.277.83v6.094c0,.067.071.137.208.206h3.532a.121.121,0,0,0,.137-.139v-.76a.646.646,0,0,0,.208-.346,1,1,0,0,0-.208-.485v-4.64l.138-.206a.121.121,0,0,1-.138-.139v-.137c.138,0,.208-.047.208-.139l-.208-.277v-.487c.184,0,.277-.045.277-.137v-.208h-.277v-1.591c0-.047.021-.069.067-.069l-.067-.137V7038.2c0-.437-.045-1.107-.137-2.007h.067l.208.139h.483l.137-.069c.28.148.418.311.418.483.232-.092.343-.184.343-.275h-.206c-.034,0-.148-.116-.345-.347h-.069a3.545,3.545,0,0,0-.622.069q-.483,0-1.246-1.66-.053,0-1.246-2.078c.184-.071.277-.139.277-.208v-.069h-.347a8.341,8.341,0,0,1-1.452-2.282,31.607,31.607,0,0,1-2.494-4.293h.071c-.071-.184-.139-.275-.208-.275,0,.047-.024.067-.069.067l-.691-1.036a.121.121,0,0,0,.137-.138q-.242,0-.9-1.11v-.066h.067l.277.139a2.163,2.163,0,0,0,.276-.072l.14.072a.52.52,0,0,1,.206-.072v-.137h-.553l-.347-.349-.208.141a6.139,6.139,0,0,1-.691-3.046c.045-.576.069-.922.069-1.038l-.069-.277.069-.277c-.045-.609-.069-1.119-.069-1.521a.062.062,0,0,0,.069-.069.062.062,0,0,1-.069-.068.549.549,0,0,1,.277-.07v-.068c-.184,0-.277-.046-.277-.138V7010.3a.061.061,0,0,1,.069-.069l-.069-.139a3.593,3.593,0,0,1,.344-1.593.8.8,0,0,0,.416.139h.138c0-.1-.161-.2-.483-.277a3.893,3.893,0,0,1,1.66-1.866l.277.067a3.56,3.56,0,0,1,.553-.067v-.071a.533.533,0,0,1-.208-.069l-.345.069v-.139a7.96,7.96,0,0,1,1.936-.483h.208c.139,0,.208.022.208.069l.347-.069h2.286l.345-.069v.069l.138-.069h.345a4.969,4.969,0,0,1,3.047.763v.067l-.07.139q1.4,0,2.078,2.7a.5.5,0,0,0,.135.275v3.392l-.135.208.135.208v1.938c-.045.141-.182.207-.416.207h-3.529a.555.555,0,0,1-.275-.066.564.564,0,0,1-.278.066.792.792,0,0,1-.208-.484v-4.913h-1.868a.585.585,0,0,0-.552,0h-.414c0-.114-.1-.186-.279-.208l-.347.208h-.555l.069.345v1.731c0,.266.024.635.07,1.107a.565.565,0,0,0-.07.277.061.061,0,0,0,.07.067l-.07.485v1.384c0,.242.024.634.07,1.177h-.07a.061.061,0,0,0,.07.068l-.07.693v1.662a.121.121,0,0,1-.139.136c0-.09-.069-.136-.2-.136a.548.548,0,0,1-.21.066v.069q.691,0,.691,1.041a10.391,10.391,0,0,0,.83,1.8c-.09.014-.137.059-.137.14.32,0,.485.229.485.693l.137-.07a18.545,18.545,0,0,1,1.387,2.421,1.742,1.742,0,0,1-.279.069v.139h.279v-.139h.067q.292.366,4.7,7.752v.139c-.229,0-.344.047-.344.139h.277l.139-.069a5.986,5.986,0,0,1,.967,2.215v.139a.687.687,0,0,1-.345.069v.069c.279,0,.414.067.414.208v14.742q0,1.85-2.352,3.393a5.592,5.592,0,0,1-2.215.483Zm5.537-18.271c.183.092.277.206.277.343h.069l.069-.273c-.114,0-.183-.094-.206-.277h-.281v.208Zm62,18.135c-.244,0-.382-.072-.414-.208v-1.04c0-.045.021-.067.069-.067a.063.063,0,0,0-.069-.071q-.07-1.743-.069-2.56v-4.707l.483.069v-.069l-.276-.345v-.069l.137-.21h-.07a.517.517,0,0,1-.206.069l-.139-.691.069-.139q-.07-.9-.069-1.454v-.067c0-.094.069-.139.208-.139v-.071l-.208-.277v-8.786l.069-.349c-.116,0-.257-.416-.416-1.246q-.349-1.248-.693-3.114a6.494,6.494,0,0,1-.484-2.215,24.78,24.78,0,0,1-.832-3.391,25.365,25.365,0,0,1-.622-2.7q-.275-.781-1.868-8.167a47.394,47.394,0,0,1-1.317-5.745c-.081,0-.125-.161-.137-.485v-.139c.127-.229.219-.345.277-.345h4.222c.253,0,.438.483.556,1.454q.082,0,.135.275a.062.062,0,0,0-.069.071c-.1,0-.242-.161-.412-.487l-.764-.206c-.069.184-.137.277-.206.277h-.345v.137l.691.208.137-.069a3.235,3.235,0,0,0,.969.347l.763,3.667a41.405,41.405,0,0,1,.9,4.432h-.276c.045.136.092.208.137.208a.559.559,0,0,1,.208-.072q1.315,5.659,1.454,6.785h-.208v.206l-.069.348.691.274h.07v-.069c-.139,0-.2-.043-.2-.136v-.278l1.1-5.605q.225-1.175.347-1.176a.555.555,0,0,0,.279.068l.067-.139c-.23,0-.346-.045-.346-.138l.9-4.983h.069l-.069-.139a16.211,16.211,0,0,0,.62-2.77l.208-.483a.122.122,0,0,1-.139-.139,6.652,6.652,0,0,0,.347-1.591c.06,0,.172-.114.349-.347a3.4,3.4,0,0,0,.551.069,1.975,1.975,0,0,0,.277-.069.063.063,0,0,1,.071.069l.693-.069h2.488c.278.022.416.094.416.206v.347q-1.037,4.759-1.038,5.123a.544.544,0,0,1-.276-.07.815.815,0,0,1-.416.138c-.161-.322-.532-.483-1.109-.483.288.463.588.691.9.691h.069l.212-.137h.412l.141.067-.416,1.454q-.349,0-.349-.275H2301v.206h.137v.141l-.067.137.485.139q-.762,3.01-1.317,6.021l-1.381,6.09c-.14.969-.277,1.454-.418,1.454l.069.139v.139l-1.107,5.121-.345-.071h-.069c.229.188.347.3.347.349s-.049.312-.139.763c.045.506.069.967.069,1.383v.208a.061.061,0,0,1-.069.069l.069.137v5.747l-.069.137-.139-.069a.5.5,0,0,1-.206.069v.069c.275,0,.414.047.414.137v.832c-.234.186-.347.3-.347.345.23,0,.347.071.347.21,0,.392.021,1.662.069,3.806h-.139l-.139-.069v.208l.277.069v.9q0,2.389.067,6.5c0,.275-.206.418-.624.418Zm37.471-34.82-.759-2.082a3.52,3.52,0,0,0-.305-.628,2.437,2.437,0,0,0-.142-.607l-.049-.131a.526.526,0,0,0-.163-.233c-.109-.3.03-.529.422-.669l2.342-.853.022.063a2.042,2.042,0,0,0-.172.945,1.424,1.424,0,0,0,.562-1.086l.107-.114,1.563-.57.24.063a.134.134,0,0,1,.084-.179l4.878-1.775.144.391a.133.133,0,0,0,.176.083c-.127-.345-.127-.545,0-.593l5.269-1.917a6.579,6.579,0,0,1,.933-.266c.06-.037.142-.077.219-.114-.077-.039-.159-.079-.219-.116a5.884,5.884,0,0,1-.933-.266l-5.269-1.917-.18-.176-.144.058-4.878-1.776a.131.131,0,0,1-.084-.174l-.24.058-1.563-.569-.107-.112-.39-.143-.022.067-2.342-.854c-.392-.143-.531-.365-.422-.669a.535.535,0,0,0,.163-.234l.049-.131a2.43,2.43,0,0,0,.142-.609,3.45,3.45,0,0,0,.305-.627l.759-2.08a.669.669,0,0,1,.767-.09l2.082.759a2.225,2.225,0,0,1,.5.255,2.08,2.08,0,0,1,.545.123l4.876,1.776.757.347c.015-.043.176-.007.481.1l.452.163a3.415,3.415,0,0,1,.564.28.96.96,0,0,1,.478.1l.324.118a.122.122,0,0,1,.084.178l.242-.058a4.113,4.113,0,0,1,.952.42q.742.193,1.325.408l3.708,1.348c.4.147.956.372,1.667.682a.494.494,0,0,1,.218.006c.465.217.888.4,1.278.537l.716.263c.1.035.212.055.315.086a.157.157,0,0,1,.09-.135l6.44-2.342c.088-.034.155.017.2.146l.129-.048c-.047-.129-.028-.212.058-.241l.521-.189.433-.232a.545.545,0,0,1,.157.238l.067-.024c-.039-.182-.007-.292.1-.332l1.042-.379q.551-.2,1.778-.573l.114.105-.1.333.071.193a.532.532,0,0,1,.225.216l.065-.024a2.911,2.911,0,0,1,.081-.988l-.022-.066.066-.024a.123.123,0,0,1,.176.084,1.165,1.165,0,0,1,.474-.318l1.688-.617a.124.124,0,0,1,.178.085.749.749,0,0,1-.36.425l.049.13c.127-.047.225.015.29.188l.064-.023a1.692,1.692,0,0,1,.1-.922l2.344-.853c.063-.024.152.019.264.125l.024.062-.021.156c.09-.032.156.019.2.148a.648.648,0,0,0,.005.219l.154.017.129-.047a.843.843,0,0,1,.129-.857c-.03-.085-.022-.14.019-.156.349-.123.811-.269,1.39-.429.427-.2.768-.354,1.017-.444.022.065.133.1.332.1-.026-.066.015-.154.124-.265l.909-.333q.652-.237.84.286l.047.128c.034.088-.017.153-.144.2l.045.129c.129-.047.212-.026.246.061l1.085,2.99a.47.47,0,0,1-.094.551l-4.229,1.54a.058.058,0,0,1-.085-.045l-.107.114-5.595,2.035-.369.208a.7.7,0,0,0-.347.055l-.911.329a.133.133,0,0,1-.178-.082l.065-.024-.112-.1-.049-.134.021-.151-.157-.017c.142.39.17.6.086.631l-.2.071c-.107.039-.2-.021-.29-.189a.123.123,0,0,0-.082.178.064.064,0,0,1,.09.042,1.176,1.176,0,0,1-.472.32l-.066.022a2.511,2.511,0,0,1-.611.149l-.3.183c-.787.237-1.444.451-1.979.646l-.39.141c-.129.049-.2.051-.217.008l-.133.09.133.092c.013-.045.088-.043.217,0l.39.143c.534.192,1.192.406,1.979.645l.3.184a2.412,2.412,0,0,1,.611.147l.066.024a1.173,1.173,0,0,1,.472.319c-.015.043.185.073.14.058l.142-.027.2.07.1.332.112-.107-.065-.021a.135.135,0,0,1,.178-.085l.911.332a.691.691,0,0,0,.347.054l.369.207,5.595,2.034.107.114a.056.056,0,0,1,.085-.041l4.229,1.536a.472.472,0,0,1,.094.552l-1.085,2.992c-.034.086-.116.106-.246.06l-.045.128c.127.049.178.115.144.2l-.047.131c-.126.345-.4.44-.84.283l-.909-.33c-.109-.114-.15-.2-.124-.268-.2,0-.309.035-.332.1-.249-.091-.59-.238-1.017-.442-.579-.163-1.042-.306-1.39-.434-.041-.015-.049-.069-.019-.153l-.626-.3c-.113.106-.2.148-.264.124l-2.344-.853-.326-.118-1.688-.614a1.19,1.19,0,0,1-.474-.32.12.12,0,0,1-.176.082l-.066-.022.022-.065-.341-.272-.114.107q-1.226-.374-1.778-.573l-1.042-.377c-.107-.043-.139-.153-.1-.334l-.067-.023a.535.535,0,0,1-.157.235l-.433-.232-.521-.187c-.086-.03-.1-.113-.058-.244l-.129-.047c-.047.129-.115.182-.2.147l-6.44-2.345a.152.152,0,0,1-.09-.132c-.1.03-.212.049-.315.087l-.716.26c-.39.143-.813.322-1.278.538a.505.505,0,0,1-.218.007c-.712.31-1.265.534-1.667.681l-3.708,1.349q-.582.214-1.325.409a4.319,4.319,0,0,1-.952.419l-.242-.06a.122.122,0,0,1-.084.179l-.324.117a.983.983,0,0,1-.478.1,3.293,3.293,0,0,1-.564.277l-.452.168c-.305.109-.467.146-.481.1l-.757.348-4.876,1.774a2.088,2.088,0,0,1-.545.126,2.355,2.355,0,0,1-.5.255l-2.082.757a1.079,1.079,0,0,1-.367.075A.53.53,0,0,1,2330.509,7019.782Z" transform="translate(-2220.21 -6998.569)" fill="#e6dcc9" stroke="rgba(0,0,0,0)" stroke-width="1"></path>
				</svg>