<?xml version="1.0" encoding="utf-8"?>
<!-- Generator: Adobe Illustrator 27.4.1, SVG Export Plug-In . SVG Version: 6.00 Build 0)  -->
<svg version="1.1" id="Capa_1" xmlns="http://www.w3.org/2000/svg" xmlns:xlink="http://www.w3.org/1999/xlink" x="0px" y="0px"
	 viewBox="0 0 125.3 56.1" style="enable-background:new 0 0 125.3 56.1;" xml:space="preserve">
<style type="text/css">
	.st0{fill:#161615;}
</style>
<path id="Trazado_1076" class="st0" d="M105.4,54.6l1-1.9c0.3,0.3,0.7,0.5,1.1,0.7c0.3,0.1,0.7,0.2,1,0.2c0.3,0,0.6-0.1,0.9-0.3
	c0.2-0.2,0.3-0.4,0.3-0.6c0-0.1,0-0.2-0.1-0.4c-0.1-0.1-0.1-0.2-0.2-0.3c-0.1-0.1-0.3-0.2-0.4-0.2c-0.2-0.1-0.4-0.2-0.7-0.2
	c-0.3-0.1-0.6-0.2-0.9-0.3c-0.3-0.1-0.6-0.3-0.8-0.5c-0.2-0.2-0.4-0.5-0.6-0.7c-0.2-0.4-0.2-0.7-0.2-1.1c0-0.4,0.1-0.8,0.2-1.2
	c0.3-0.7,0.9-1.3,1.6-1.6c0.4-0.2,0.9-0.2,1.3-0.2c0.5,0,1,0.1,1.4,0.2c0.5,0.1,1,0.3,1.4,0.6l-1,1.9c-0.2-0.2-0.5-0.4-0.8-0.5
	c-0.2-0.1-0.5-0.1-0.8-0.2c-0.3,0-0.5,0.1-0.8,0.2c-0.2,0.1-0.3,0.3-0.3,0.6c0,0.1,0,0.3,0.1,0.4c0.1,0.1,0.2,0.2,0.4,0.3
	c0.2,0.1,0.4,0.1,0.5,0.2c0.2,0.1,0.4,0.1,0.6,0.2c0.7,0.2,1.3,0.5,1.7,1c0.4,0.5,0.6,1.1,0.5,1.7c0,0.4-0.1,0.9-0.2,1.3
	c-0.2,0.4-0.4,0.7-0.7,1c-0.3,0.3-0.7,0.5-1.1,0.6c-0.5,0.2-1,0.2-1.5,0.2C107.5,55.6,106.4,55.2,105.4,54.6z M22.2,54.8
	c-0.5-0.5-0.9-1.2-1-2l1.4-0.3c0,0.4,0.1,0.8,0.3,1.1c0.3,0.4,0.8,0.6,1.3,0.6c0.4,0,0.8-0.1,1.1-0.4c0.3-0.3,0.4-0.7,0.4-1.1
	c0-0.2,0-0.3-0.1-0.5c-0.1-0.2-0.1-0.3-0.2-0.4c-0.1-0.1-0.3-0.3-0.4-0.4c-0.2-0.1-0.4-0.2-0.6-0.3l-0.9-0.4
	c-1.1-0.3-1.8-1.2-1.9-2.3c0-0.7,0.3-1.3,0.8-1.7c0.5-0.5,1.3-0.7,2-0.7c1.1,0,2,0.6,2.5,1.6l-1.1,0.7c-0.1-0.3-0.3-0.5-0.6-0.7
	c-0.6-0.3-1.2-0.2-1.7,0.1c-0.2,0.2-0.4,0.5-0.4,0.8c0,0.4,0.3,0.8,1,1.1l0.9,0.4c0.6,0.2,1.2,0.6,1.6,1.1c0.4,0.5,0.5,1,0.5,1.6
	c0,0.8-0.3,1.5-0.8,2.1c-0.6,0.6-1.3,0.9-2.1,0.8C23.5,55.6,22.8,55.3,22.2,54.8z M11.3,54.5c-0.6-0.6-0.9-1.5-0.9-2.4v-5.9h1.4v5.6
	c0,0.6,0.1,1.2,0.4,1.7c0.7,0.9,2,1.1,2.9,0.4c0.1-0.1,0.2-0.2,0.4-0.4c0.3-0.5,0.4-1.1,0.4-1.7v-5.6h1.4v5.9c0,0.9-0.3,1.8-0.9,2.4
	C15,55.9,12.8,55.9,11.3,54.5C11.4,54.5,11.4,54.5,11.3,54.5L11.3,54.5z M1.5,54.8c-0.5-0.5-0.9-1.2-1-2L2,52.5
	c0,0.4,0.1,0.8,0.3,1.1c0.5,0.7,1.5,0.8,2.2,0.3c0,0,0.1-0.1,0.1-0.1c0.3-0.3,0.4-0.7,0.4-1.1c0-0.2,0-0.3-0.1-0.5
	c-0.1-0.2-0.1-0.3-0.2-0.4c-0.1-0.1-0.3-0.3-0.4-0.4c-0.2-0.1-0.4-0.2-0.6-0.3l-0.9-0.4C1.8,50.5,1,49.5,1,48.4
	c0-0.7,0.3-1.3,0.8-1.7c0.5-0.5,1.3-0.7,2-0.7c1.1,0,2,0.6,2.5,1.6l-1.1,0.7c-0.1-0.3-0.3-0.5-0.6-0.7c-0.6-0.3-1.2-0.2-1.7,0.1
	c-0.2,0.2-0.4,0.5-0.4,0.8c0,0.4,0.3,0.8,1,1.1l0.9,0.4C4.9,50.1,5.5,50.5,6,51c0.4,0.5,0.5,1,0.5,1.6c0,0.8-0.3,1.5-0.8,2.1
	c-0.6,0.6-1.3,0.9-2.1,0.8C2.8,55.5,2.1,55.3,1.5,54.8L1.5,54.8z M122,55.4l-0.6-1.6h-3.4l-0.6,1.6H115l3.5-9.2h2.6l3.5,9.2H122z
	 M118.7,51.9h2.2l-1.1-3.1L118.7,51.9z M99.9,55.4l-0.6-1.6H96l-0.6,1.6h-2.6l3.5-9.2H99l3.5,9.2H99.9z M96.6,51.9h2.2l-1.1-3.1
	L96.6,51.9z M87.3,55.4l-3.1-4v4h-2.4v-9.2h2.4v3.8l2.9-3.8h3l-3.7,4.4l4,4.9L87.3,55.4z M75.2,55.4v-9.2h2.4v9.2L75.2,55.4z
	 M69,55.4L68.2,50L66,55.4h-1L63,50l-0.8,5.3h-2.4l1.6-9.2h2.4l1.8,4.9l1.8-4.9h2.4l1.6,9.2H69z M54.3,55.4l-0.6-1.6h-3.4l-0.6,1.6
	h-2.6l3.5-9.2h2.6l3.5,9.2H54.3z M51,51.9h2.2l-1.1-3.1L51,51.9z M42.4,55.4v-9.2h1.4v9.2L42.4,55.4z M36.5,55.4V51h-4v4.3h-1.4
	v-9.2h1.4v3.6h4v-3.6h1.4v9.2L36.5,55.4z M93,39.1c-3.8,0-6.9-3.1-6.9-6.9l0,0V7.5c0-3.8,3.1-6.9,6.9-6.9l0,0h24.7
	c3.8,0,6.9,3.1,6.9,6.9c0,0,0,0,0,0v24.7c0,3.8-3.1,6.9-6.9,6.9c0,0,0,0,0,0L93,39.1z M103.3,33.3c0,1.1,0.9,2,2,2c1.1,0,2-0.9,2-2
	c0,0,0,0,0,0v-4.8c0.5,0.2,0.9,0.8,0.8,1.4v1.3c1.3-0.1,2.4-1.1,2.5-2.5c1.4-0.9,2.4-2.4,2.7-4l1.2-8.1c0.4-3-1.6-5.8-4.5-6.4
	c0,0,0-0.1,0-0.1c0-0.1,0-0.3,0-0.4l3.7-0.6c0.6-0.1,1.1-0.7,1-1.3c-0.1-0.6-0.7-1.1-1.3-1l0,0l-4.2,0.7c-1.5-2.1-4.3-2.5-6.4-1.1
	c-0.4,0.3-0.8,0.7-1.1,1.1l-4.2-0.7c-0.6-0.1-1.3,0.3-1.4,0.9C96,8.3,96.4,8.9,97,9.1c0,0,0,0,0.1,0l3.7,0.6c0,0.1,0,0.3,0,0.4
	c0,0,0,0.1,0,0.1c-3,0.6-4.9,3.4-4.5,6.4l1.2,8.1c0.2,1.7,1.2,3.2,2.7,4c0.1,1.3,1.1,2.4,2.5,2.5v-1.3c-0.1-0.6,0.2-1.1,0.8-1.4
	L103.3,33.3z M43.1,38.7c-0.2,0-0.4,0-0.8-0.1v-0.1h-0.4c0,0.1,0,0.1-0.1,0.1c-0.1,0-0.1,0-0.2-0.1c0-0.1,0-0.1,0-0.2
	c0,0,0-0.1-0.1-0.2c0.1,0,0.2-0.1,0.3-0.1v-0.1h-0.3c-0.2,0-0.3,0.1-0.4,0.2H41c-0.2-0.1-0.3-0.2-0.3-0.3l0.1-0.1
	c-0.8,0-1.4-0.8-1.7-2.5c0-0.3,0-0.6-0.1-1c0-0.4,0.1-1,0.1-1.7v-0.2h0.1v0.2h0.1c0.1,0,0.1,0,0.1-0.1c0,0,0,0,0,0
	c0,0-0.2-0.1-0.4-0.4v-0.9l0.1-0.1l0.1,0.1h0.1v-0.1c0-0.1,0-0.1-0.1-0.1c0,0,0,0,0,0c0,0.1,0,0.1-0.1,0.1c0,0,0,0,0,0l-0.1-0.1
	v-0.3c0-0.2,0-0.4,0.1-0.8c0.1,0,0.3,0.1,0.4,0.1c0.1,0,0.1,0,0.2-0.1c0,0,0.1,0,0.2,0.1c0-0.2-0.1-0.4-0.3-0.4h-0.1
	c0.1,0.1,0.1,0.2,0.2,0.3h-0.2C39.3,30,39.2,30,39.1,30l-0.1-1.8c0-1,0.1-1.6,0.1-1.8l-0.1-0.1c0-0.1,0.1-0.2,0.1-0.4
	c0-0.2,0-0.7-0.1-1.5c0.1,0,0.2-0.1,0.3-0.4v-0.1c-0.1,0-0.1,0-0.2-0.1c0,0,0,0.1-0.1,0.2h-0.1V1.9l0.1-0.1c0,0-0.1,0-0.1,0
	c0,0,0,0,0,0c0.1,0,0.1-0.1,0.2-0.1V1.6c-0.1,0-0.2,0-0.2-0.1V1c0-0.1,0.1-0.1,0.2-0.2h0.6l0.2,0.2h0.1c0-0.1,0-0.1,0.1-0.2
	c0,0,0,0,0,0c0.1,0,0.1,0,0.1,0.1l0.4-0.1h1.6c0.2,0,0.3,0.1,0.4,0.2v1.7c0,0.1,0,0.1-0.1,0.1l-0.2-0.2h-0.1c-0.1,0-0.1,0-0.1,0.1
	v0.1c0.1,0,0.2,0.1,0.3,0.2l0.2-0.1h0.1v4l-0.6-0.1v0.2h0.1c0.1,0,0.2,0,0.2-0.1c0.3,0,0.4,0.1,0.4,0.2v9.5l-0.1,0.2l0.1,0.2v0.1
	c-0.1,0.1-0.2,0.2-0.2,0.3c0.1,0,0.2,0,0.2,0.1c0,0-0.1,0-0.1,0c0,0,0,0,0,0c-0.1-0.1-0.2-0.1-0.3-0.1v0.1l0.1,0.2v0.2
	c0,0.1-0.1,0.1-0.2,0.1v0.1c0.1,0,0.2,0.1,0.3,0.2L42.5,18c0.1,0,0.2,0,0.2,0.1c0,0.1,0,0.1-0.1,0.2c0,0.2,0.1,0.4,0.1,0.6v0.4
	l-0.1,0.1l-0.3-0.1h-0.1v0.1h0.3c0.1,0,0.1,0,0.1,0.1v0.3c0,0.1-0.1,0.1-0.2,0.1V20c0.1,0,0.2,0,0.2,0.1v0.1l-0.1,0.2
	c0.1,0,0.1,0,0.1,0.1v2.4c-0.1,0.1-0.1,0.3,0,0.4v2c0,0-0.1,0.1-0.3,0.2c-0.1-0.1-0.3-0.1-0.4-0.2c0,0.1,0.1,0.2,0.3,0.3
	c0.1-0.1,0.2-0.1,0.4-0.1v1.8c0,0.1-0.1,0.1-0.3,0.1v0.1c0.2,0,0.3,0.1,0.3,0.2v1.8l-0.1,0.3c0,0.1,0.1,0.2,0.1,0.3v0.1l-0.1,0.2
	c0.1,0,0.1,0,0.1,0.1v3.8c-0.1,0.1-0.1,0.3,0,0.4v0.5c0.2,0.2,0.4,0.4,0.7,0.4c0,0.2-0.1,0.5-0.3,0.6c0,0,0,0.1,0.1,0.2l-0.1,0.1H43
	l-0.2-0.1h-0.1c0,0.1,0.1,0.2,0.3,0.3c-0.1,0.2-0.1,0.4-0.1,0.5c0.1-0.1,0.2-0.1,0.3-0.1c0,0,0.1,0,0.2,0.1l-0.1-0.2
	c0-0.1,0.1-0.1,0.2-0.1c-0.1-0.1-0.1-0.2-0.2-0.3c0-0.2,0.1-0.4,0.2-0.4c0.1,0,0.1-0.1,0.2-0.1c0.1,0,0.1,0.1,0.2,0.1v-0.1
	c-0.3,0-0.4-0.1-0.4-0.3c0.1-0.1,0.1-0.2,0.2-0.4h1.9c0.1,0,0.2-0.1,0.2-0.3v-3.1c0-2.6,0-6.1-0.1-10.5c0-0.3-0.1-0.6-0.1-0.9
	c0-0.1,0.1-0.1,0.1-0.2c0,0,0-0.1-0.1-0.2c0-0.1,0.1-0.2,0.1-0.2c0,0,0-0.1,0-0.1c0,0,0,0,0,0c0-0.8-0.1-1.5-0.1-1.9v-4.4
	c0-0.1,0-0.1,0.1-0.1l0.1,0.2l0.1-0.1l0.3,0.1h0.1v-0.1c-0.2-0.1-0.4-0.2-0.6-0.3V8.8c0,0,0-0.1,0-0.1c0,0,0,0,0,0l-0.1-0.1V8
	c0-0.1,0.1-0.1,0.2-0.1V7.8c-0.1,0-0.2,0-0.2-0.1V7.4c0-0.3,0.1-0.4,0.2-0.4V6.9c-0.1,0-0.2-0.1-0.2-0.3V4.3c0-0.3,0-0.8,0.1-1.4
	c0-0.1,0-0.1-0.1-0.2c0-0.1,0.1-0.1,0.1-0.2c0,0,0-0.1,0-0.1c0,0,0,0,0,0L45.7,2V0.9c0-0.1,0.1-0.1,0.2-0.2h3.1c0,0,0.1,0.1,0.3,0.3
	v2.6h-0.2l0.2,0.2v5.2c0,0.1,0,0.1-0.1,0.1c0,0,0,0,0,0l0.1,0.1v0.3l-0.1,0.2c0.1,0,0.1,0,0.1,0.1V10c0,0.1,0,0.2-0.1,0.2l0.1,0.3
	V11c0,0.1,0,0.1-0.1,0.1c0,0,0,0,0,0c-0.1,0-0.1-0.1-0.2-0.1l-0.1,0.1c0.3,0,0.4,0,0.4,0.1V19c-0.2,0.3-0.4,0.6-0.5,1h0.1l0.4-0.4
	h0.1c0.1,5.4,0.1,8.3,0.1,8.8h-0.1l-0.1-0.1v0.1c0,0.1,0.1,0.2,0.2,0.2v5.1c0,0.2,0,0.3-0.1,0.5c0,0.1,0.1,0.2,0.1,0.4v0.2
	c0.2,1.5-0.6,2.9-1.9,3.5c-0.5,0.3-1,0.4-1.6,0.4L43.1,38.7z M70.4,38.6c0,0-0.1,0-0.3,0.1c-1.4,0-2.1-0.1-2.1-0.2
	c-0.3-0.1-0.5-0.3-0.7-0.5v-1l0.1-0.3h-0.1v-5.8l0.1-0.2v-0.1l-0.1-0.2v-5.2l0.3,0.1v-0.1c0-0.1-0.1-0.1-0.3-0.1v-3.7
	c0-0.1,0.1-0.1,0.3-0.2c0-0.1-0.1-0.3-0.2-0.3c0,0,0,0-0.1,0v-1.9c0-0.1,0.1-0.1,0.2-0.1v-0.1c-0.1,0-0.1,0-0.2-0.1c0,0,0,0,0,0
	c0-0.6,0-2-0.1-4.1l0.1-0.1c0-0.1-0.1-0.1-0.1-0.2v-0.4c0-0.3,0.1-0.4,0.2-0.4v-0.1l-0.2-0.2V12c0-0.5,0-1.1-0.1-1.8
	c0-0.3,0-0.5,0.2-0.8c-0.1-0.2-0.2-0.4-0.2-0.6V8c0-0.1,0-0.1,0.1-0.1c0,0,0,0.1,0.1,0.2h0.1c0-0.1,0-0.1,0.1-0.2
	c-0.1,0-0.1-0.1-0.2-0.2c0,0,0.1,0,0.2-0.1V7.5c0-0.1,0-0.1-0.1-0.1c0,0,0,0,0,0h-0.1v0.1h-0.1V7.2c0,0,0-0.1,0.1-0.1L67.1,7V6.4
	c0.1,0,0.2,0,0.2-0.1h-0.2V5.4c0-0.3,0-0.5-0.1-0.8c0-0.8,0.2-1.6,0.6-2.4c0.2,0,0.3,0.1,0.4,0.2c0-0.1,0.1-0.1,0.2-0.1V2.2
	C68.2,2.1,68.1,2,67.9,2c0.3-0.4,0.7-0.7,1.2-0.8l-0.1-0.1V1c0.4-0.2,0.8-0.3,1.2-0.3h2c0.1,0,0.2,0,0.3,0.1
	c0.1-0.1,0.2-0.1,0.3-0.1h1.5c0.9,0.1,1.8,0.5,2.4,1.2c0.5,0.7,0.8,1.5,0.8,2.3v2.6c0,0.1,0,0.1-0.1,0.1c0,0,0,0,0,0
	c0-0.1,0-0.1-0.1-0.1c0,0,0,0,0,0h-0.1l-0.1,0.3c0.1,0,0.3,0.1,0.3,0.2v1c0,0,0,0.1,0,0.1c0,0,0,0,0,0l0.1,0.1v1.7
	c0,0.1,0,0.1-0.1,0.1c0,0,0,0,0,0c0-0.1,0-0.1-0.1-0.1c0,0,0,0,0,0h-0.2v0.1c0.1,0,0.2,0.1,0.4,0.4v1.9c0,0.1-0.1,0.1-0.2,0.1
	l0.2,0.2v0.7c0,0.1-0.1,0.1-0.4,0.2v0.1c0.1,0,0.2,0,0.2,0.1l0.1-0.1c0.1,0,0.1,0,0.1,0.1v1L77.5,15l-0.1-0.1
	c-0.1,0-0.1,0.1-0.2,0.2c0.2,0.1,0.3,0.1,0.3,0.2v1c0,0.1,0,0.1-0.1,0.2c0,0.1,0.1,0.1,0.1,0.2c0,0.1,0,0.1-0.1,0.1c0,0,0,0,0,0
	l0.1,0.1l-0.1,0.2c0.1,0,0.1,0.1,0.2,0.2v0.5c0,0.1-0.1,0.1-0.2,0.1l0.2,0.2v3.3c0,0.1-0.1,0.1-0.2,0.1c0.1,0.1,0.2,0.3,0.2,0.4
	c0,0,0,0.1,0,0.1c0,0,0,0,0,0l0.1,0.3v1.4c0,0.1-0.1,0.1-0.3,0.2c0,0,0.1,0.1,0.3,0.3v3.1c0,0.1-0.1,0.1-0.2,0.2l-0.3-0.1v-0.1
	l0.2-0.2c-0.2-0.2-0.4-0.3-0.6-0.3v0.1c0,0.1,0,0.1,0.1,0.1l0.1-0.1l0.1,0.1l-0.4,0.5l0.4,0.3c0.1,0,0.2-0.1,0.2-0.2h0.1l0.1,0.1
	v-0.1h0.2v3.2l-0.1,0.1c-0.1,0-0.2-0.1-0.3-0.3h-0.1c0.1,0.3,0.3,0.4,0.5,0.4v0.5c0,0.1,0,0.1-0.1,0.2c0.1,0.1,0.1,0.3,0.1,0.4v2.6
	c0,0.4-0.1,0.6-0.2,0.6h-0.1v0.1c0.2,0,0.3,0,0.3,0.1v2h-0.3v0.1l0.1,0.2c-0.1,0-0.1,0-0.1,0.1l0.1,0.1h0.1v-0.2
	c0.1,0,0.1,0,0.1,0.1v0.6c0,0.1-0.1,0.2-0.3,0.2h-3c-0.2,0-0.3-0.1-0.4-0.3c0,0,0-0.1,0-0.1v-0.9l0.2-0.2c-0.1,0-0.2,0-0.2-0.1
	c0.1,0,0.1-0.1,0.2-0.1c0-0.1-0.1-0.1-0.2-0.2c0-0.9-0.1-1.6-0.1-2.1v-2l0.3-0.1c0,0,0,0.1,0,0.1c0,0,0,0,0,0l-0.1,0.1v0.1h0.2
	c0-0.1,0.1-0.2,0.3-0.2v-0.1l-0.7-0.4v-0.2h0.2c0-0.1-0.1-0.1-0.2-0.1v-0.5c0-0.4,0-0.8,0.1-1.2c0-0.5-0.1-1-0.1-1.5v-2.2H74
	l0.2,0.2c0.1-0.1,0.2-0.2,0.4-0.2l0.1,0.1l0.1-0.1c-0.3,0-0.6-0.1-0.8-0.3V26l0.1-0.2c-0.1,0-0.1,0-0.1-0.1c0,0,0,0,0,0v-1.1h0.1
	c0.1,0.3,0.1,0.4,0.2,0.4h0.1v-0.2c-0.1-0.3-0.2-0.5-0.2-0.5h-0.2v-0.1c0-0.1,0-0.2,0.1-0.3l-0.1-0.3v-0.2c0,0,0-0.1,0-0.1
	c0,0,0,0,0,0l-0.1-0.1v-1.8c0-0.1-0.2-0.2-0.5-0.3c0,0,0-0.1,0-0.1c0,0,0,0,0,0c0,0,0,0.1-0.1,0.2h-2.1l-0.4,0.1v2.3l-0.1,0.1
	l-0.3-0.1l0.1-0.1v-0.1c-0.1-0.1-0.1-0.1-0.1-0.2h-0.1l0.1,0.1c-0.1,0-0.1,0-0.1,0.1c0.1,0,0.1,0,0.1,0.1l-0.1,0.1
	c0.1,0,0.1,0.1,0.1,0.2h0.3c0.1,0,0.1,0,0.1,0.1v0.2c0,0,0,0.1,0,0.1c0,0,0,0,0,0l0.1,0.1V38l0.1,0.4c-0.2,0.2-0.3,0.3-0.3,0.3
	C70.5,38.7,70.5,38.7,70.4,38.6L70.4,38.6z M71,17.8h1.1c0.3,0.2,0.6,0.4,0.9,0.5c0-0.1,0.1-0.1,0.2-0.1l-0.1-0.3
	c-0.2,0-0.3,0-0.4,0.1c0-0.1-0.1-0.1-0.3-0.1v-0.1h1.3c0.1,0,0.2-0.1,0.2-0.3v-0.8c0-0.1,0.1-0.1,0.4-0.1v-0.1
	c-0.2,0-0.4-0.1-0.4-0.2v-1.7c0,0,0-0.1,0.1-0.1L74,14.5v-3c0-0.2,0-0.4-0.1-0.8H74l0.2,0.1h0.1c0.1-0.1,0.1-0.1,0.2-0.1
	c0.3,0,0.4,0.1,0.4,0.1v-0.1c0-0.1-0.1-0.1-0.4-0.2v-0.1l0.1-0.1l-0.4-0.3V9.9c0-0.1,0.1-0.1,0.3-0.2c0-0.1-0.1-0.2-0.4-0.3V8
	L74.1,8c0.1-0.1,0.2-0.1,0.2-0.2c-0.2,0-0.3-0.1-0.4-0.3V7.4c0-0.4,0-0.9,0.1-1.3c0-0.2-0.1-0.4-0.1-0.6c0.1,0,0.1,0,0.1-0.1
	c0,0,0,0,0,0c-0.1,0-0.1,0-0.1-0.1c0,0,0,0,0,0V4.5L74,4.4l-0.2-0.2H73c-0.1,0-0.3-0.1-0.4-0.2c0-0.1,0.1-0.2,0.1-0.2
	c0-0.1-0.1-0.2-0.1-0.3c-0.2,0.1-0.4,0.1-0.6,0.2c-0.2-0.2-0.3-0.4-0.3-0.4s-0.1,0-0.1,0.1v0.1c0.1,0,0.3,0.1,0.3,0.4
	c0,0,0.1,0,0.2,0.1v0.1h-0.9L71,4.1c-0.1,0-0.1,0.1-0.3,0.2c0,0,0,0,0,0.1c0,0,0,0,0,0c0,0.1,0,0.1-0.1,0.2c0,0.4,0.1,0.7,0.1,0.9
	v0.2c0,0.1-0.1,0.1-0.2,0.1v0.1c0.1,0,0.2,0,0.2,0.1v4.1c0,0.1-0.1,0.1-0.3,0.1l0.1,0.1l-0.1,0.1h-0.1c-0.2,0-0.3-0.1-0.5-0.2
	l-0.1,0.1c-0.3,0-0.5-0.1-0.5-0.2V9.9h0.2V9.9h-0.4c-0.1,0-0.1,0.1-0.2,0.2v0.1c0.1,0,0.2,0,0.2,0.1c0,0,0.1,0,0.2-0.1
	c0.1,0.1,0.2,0.1,0.2,0.2c0,0.1-0.1,0.1-0.1,0.2c0.1,0,0.1,0,0.2-0.1c0.1,0,0.1,0.1,0.2,0.1H70c0-0.1,0.2-0.2,0.5-0.2l0.1,0.1
	l0.1-0.1c0.1,0,0.1,0,0.1,0.1v0.2c0,0.1,0,0.3,0.1,0.4c0,0.3-0.1,0.5-0.1,0.5c0.1,0.2,0.1,0.5,0.1,0.8c-0.1,0-0.1,0-0.1,0.1v0.1
	l0.1,0.2v0.5c0,0.1,0,0.1-0.1,0.2c0,0.1,0.1,0.1,0.1,0.2v0.1c0,0,0,0.1,0,0.1c0,0,0,0,0,0l0.1,0.1v0.3h-0.2v0.1
	c0.1,0,0.2,0.1,0.2,0.2v0.6l-0.1,0.2c0.1,0,0.1,0,0.1,0.1v0.1l-0.1,0.2v0.2c0.1,0.2,0.2,0.4,0.2,0.6l-0.1,0.4c0,0.2,0.1,0.3,0.1,0.5
	l-0.1,0.1c0,0.1,0.1,0.1,0.1,0.2l-0.3-0.2v0.1c0,0.1,0.1,0.1,0.2,0.2l0.1-0.1C70.8,17.7,70.9,17.8,71,17.8L71,17.8z M30.6,38.6
	l-0.3,0.1h-2.6c-0.2,0-0.3,0-0.5-0.1c-0.1,0-0.2,0.1-0.3,0v0h-1.6v-0.1h0.2v-0.1h-0.2c0,0.1-0.1,0.2-0.4,0.2h-0.4
	c-0.3,0-0.5-0.2-0.5-0.5v-1.4h0.1c0.1,0,0.1,0,0.2,0.1l0.1-0.1l-0.3-0.1c0,0,0-0.1,0.1-0.1l-0.1-0.3v-2.2l0.1-0.2
	c-0.1,0-0.1,0-0.1-0.1c0,0,0,0,0,0v-0.4c0-0.1,0.1-0.1,0.3-0.1v-0.2l-0.3,0.1l-0.1-0.1v-0.2l0.1-0.3c0,0-0.1,0-0.1,0c0,0,0,0,0,0
	c0,0,0.1,0,0.2-0.1l0.5,0.1c0,0.1-0.1,0.1-0.3,0.1v0.2c0,0.1,0,0.1,0.1,0.1c0.2,0,0.4,0,0.6-0.1h0.1v-0.1h-0.3
	c0-0.1-0.1-0.2-0.1-0.2c0.1,0,0.1-0.1,0.2-0.1v-0.2h-0.2l-0.3-0.1l0.1,0.1v0.1c-0.1,0-0.2,0-0.3-0.1c0,0.1,0,0.1-0.1,0.1
	c0,0,0,0,0,0c-0.1,0-0.1,0-0.1-0.1c0,0,0,0,0,0V32c0-0.4,0-0.9-0.1-1.6c0,0,0.1,0,0.2-0.1v-0.1c-0.1-0.1-0.1-0.2-0.2-0.4l0.1-0.3
	c0-0.5-0.1-1-0.1-1.3v-0.4c0.1,0,0.2,0,0.2-0.1v-0.2h-0.1c0,0-0.1,0-0.2,0.1v-0.9l0.1-0.3c0-0.1-0.1-0.1-0.1-0.2c0,0,0.1,0,0.1,0
	c0,0,0,0,0,0c0,0-0.1,0-0.1,0c0,0,0,0,0,0c0,0,0.1,0,0.2-0.1v-0.1l-0.1,0.1l-0.1-0.1v-1.9c0-0.1,0-0.1,0.1-0.1v0.1
	c0.1,0,0.1,0,0.2-0.1v-0.1c-0.2,0-0.3-0.1-0.3-0.2c0,0,0-0.1,0-0.1V22h0.1v0.1h0.3l0.1-0.2l-0.1,0.1h-0.1c-0.1,0-0.1-0.1-0.2-0.2
	h0.2v-0.1h-0.2c0,0,0,0.1-0.1,0.1v-1.6l0.1-0.2c-0.1,0-0.1,0-0.1-0.1c0,0,0,0,0,0v-0.7c0.2,0,0.3,0,0.3-0.1c-0.1,0-0.2-0.1-0.3-0.3
	v-0.8c0-0.2,0-0.5-0.1-0.7c0-0.1,0-0.2,0.1-0.4c0-0.1,0-0.3-0.1-0.4c0-0.1,0-0.1,0.1-0.2c0-0.4-0.1-0.7-0.1-0.9v-0.6
	c0-0.1,0-0.1,0.1-0.1c-0.1-0.1-0.1-0.3-0.1-0.4v-1.1H24l0.3,0.2h0.1v-0.1c-0.1,0-0.3-0.1-0.4-0.2v-0.4l0.2-0.2v-0.1
	c-0.1-0.2-0.2-0.4-0.2-0.6V9L24.3,9h0.2V9c-0.2,0-0.4-0.1-0.5-0.2v-2h0.1c0.3,0.3,0.5,0.4,0.5,0.5l-0.1,0.1c0.1,0.2,0.3,0.3,0.3,0.5
	h0.1L25,7.9c-0.1-0.4-0.2-0.6-0.3-0.6V7.2c0-0.1,0.1-0.1,0.2-0.1V6.9l-0.7-0.2V6.6l0.1-0.1c-0.1,0-0.1,0-0.1-0.1V6.2h0.2
	c0-0.1,0.1-0.1,0.1-0.2c-0.2,0-0.3-0.1-0.4-0.4V5H24L24.1,5c0-0.1,0-0.1,0.1-0.1c0.1,0,0.1,0,0.2,0.1c0.2,0,0.4-0.1,0.6-0.1
	c0-0.1-0.2-0.2-0.4-0.2c0,0.1-0.2,0.2-0.6,0.2v-1h0.4V3.7c-0.1,0-0.2,0-0.2-0.1l0.1-0.2h-0.1L24,3.5V2.3l0.1-0.2
	c-0.1,0-0.1,0-0.1-0.1c0,0,0,0,0,0V1.1c0.1-0.2,0.3-0.3,0.5-0.3H28C28.2,1,28.5,1,28.8,1c0-0.1,0-0.2,0.1-0.2l0.8-0.1l0.3,0.1
	c0.3,0,0.4-0.1,0.4-0.1c0.9-0.1,1.9,0.1,2.6,0.6c0.6,0.4,0.9,0.7,0.9,0.9c0.1,0,0.3,0.3,0.5,1c-0.1,0-0.1,0-0.1,0.1l0.1,0.2v0.1
	C34.2,3.9,34.2,4,34.1,4c0,0,0-0.1-0.1-0.2c0.1-0.1,0.1-0.2,0.1-0.3h-0.1l-0.3,0.1L34,3.7c-0.3,0.3-0.5,0.4-0.5,0.5
	c-0.1,0-0.1,0-0.1,0.1h0.1c0.4,0,0.7-0.1,1-0.3h0.1v4.6c0,0,0,0.1-0.1,0.1c0,0,0,0.1,0,0.1c0,0,0,0,0,0c0,1.1,0.1,1.9,0.1,2.4v0.2
	c-0.1,0.4-0.1,0.9,0,1.3v1c0,0.2,0,0.4-0.1,0.6l-0.2-0.1v0.1c0.2,0.1,0.3,0.3,0.3,0.3c0,1.9-0.1,3-0.1,3.4c-0.2,0.7-0.7,1.4-1.3,1.8
	H33v0.1c1,0.6,1.6,1.6,1.5,2.7v7.6c-0.2,0-0.3,0-0.3,0.1c0.1,0,0.2,0.1,0.3,0.1v0.9l-0.1,0.2v0.2h-0.1v0.1c0,0.1,0.1,0.1,0.2,0.1
	v0.4c0,0.1,0,0.1-0.1,0.1c0,0,0,0,0,0c-0.1,0-0.1-0.1-0.1-0.2h-0.2l0.1,0.3h0.3v1.5c0,0.1-0.1,0.1-0.2,0.1V34c0.1,0,0.2,0,0.2,0.1
	v0.8c0,0.1,0,0.2,0.1,0.3c0,0.8-0.1,1.2-0.3,1.2c-0.2,0-0.3,0.1-0.3,0.2l0.2,0.2v0.1C33.6,38.1,32.1,38.8,30.6,38.6
	C30.6,38.7,30.6,38.6,30.6,38.6L30.6,38.6z M30.1,35.2c0.3,0,0.4,0.1,0.4,0.2c0.2,0,0.3-0.1,0.3-0.1v-0.2h0.1c0-0.4,0-0.9,0.1-1.3
	c0-2.1-0.1-3.9-0.1-5.3v-6.1h0.1l0.1,0.1l0.1-0.1c-0.1,0-0.1-0.1-0.2-0.1V22c0-0.2,0-0.4-0.2-0.6l-0.5,0.1h-0.6l-0.2-0.1l-0.2,0.1
	H29c0,0-0.1,0-0.1-0.1l-0.1,0.1h-1.1l-0.1,0.3c0,0.1,0,0.1,0.1,0.2c0,0.3-0.1,0.4-0.1,0.4c0,0.5,0.1,0.9,0.1,1.2h-0.1l-0.2-0.1h-0.1
	c0.1,0.2,0.1,0.3,0.2,0.3c0,0,0.1,0,0.2-0.1l0.1,0.1v0.5c0,0.5-0.1,0.8-0.3,0.8l0.1,0.1v0.1c0,0.2-0.1,0.3-0.2,0.3h-0.1
	c0,0-0.1,0-0.1-0.1l0,0.2c0,0.1,0.1,0.1,0.1,0.2L27,26L27,26.3c0.2-0.1,0.4-0.2,0.8-0.3c0,0,0,0.1,0,0.1c0,0,0,0,0,0
	c0,0,0,0.1-0.1,0.2v0.2c-0.2,0-0.5,0.1-0.7,0.2c0,0,0-0.1,0-0.1c0,0,0,0,0,0l-0.1,0.1c0.5,0.1,0.8,0.3,0.9,0.4v5.9
	c0,0.1,0,0.1-0.1,0.1c0,0,0,0,0,0c0-0.1-0.1-0.1-0.2-0.2c0,0.1,0,0.1-0.1,0.1c0,0,0,0,0,0h-0.1c-0.1,0-0.1,0-0.1-0.1c0,0,0,0,0,0
	v-0.1c0.1,0,0.1,0,0.2-0.1c0,0,0-0.1-0.1-0.2h-0.1c0,0.1-0.1,0.2-0.2,0.2l0,0.2c0.1,0.1,0.1,0.1,0.2,0.1c0,0.1,0.2,0.1,0.5,0.2v0.7
	c0,0.1,0,0.1-0.1,0.1c0,0,0,0,0,0L27.5,34l-0.1,0.1c0.2,0,0.3,0.1,0.3,0.2v0.1l-0.1,0.1c0.1,0,0.1,0,0.1,0.1v0.5
	c0,0,0.1,0.1,0.2,0.2l0.3-0.1L30.1,35.2z M27,32.6L27,32.6L27,32.6L27,32.6z M27.4,10.2c0.1,0,0.2,0.1,0.2,0.2v4.7
	c0,0.4,0,0.9,0.1,1.6c0,0.2-0.1,0.3-0.1,0.3l0.1,0.1c0,0.1-0.1,0.1-0.2,0.1v0.1l0.2,0.1v0.5c0,0.1,0.1,0.1,0.2,0.2h0.6l0.2,0.1
	l0.2-0.1h1.7c0.2,0,0.3-0.1,0.3-0.4V17l0.2-0.2v-0.1c-0.1,0-0.2,0-0.2-0.1v-0.3l-0.1-0.5l0.1-0.1c0,0.1,0.1,0.1,0.2,0.3
	c0.1,0,0.2-0.1,0.3-0.1c0-0.1-0.1-0.1-0.4-0.2c0-0.1-0.1-0.2-0.1-0.2v-2.1c0-0.4,0-1.1-0.1-2c0.1,0,0.1-0.1,0.2-0.1v-0.1
	c-0.1,0-0.2,0-0.2-0.1V9.7c0,0,0,0,0-0.1c0,0,0,0,0,0c-0.1-0.3-0.1-0.6-0.1-1V5.3c0,0,0-0.1,0-0.1c0,0,0,0,0,0l-0.1-0.1V4.4
	c0-0.1,0-0.1-0.1-0.1c0,0,0,0,0,0h-1.3c-0.2,0-0.4,0-0.6-0.1l-0.1,0.1l-0.3-0.2h-0.1c0,0.1-0.2,0.2-0.5,0.2l-0.1,0.2v5.6l-0.1,0.1
	l-0.1-0.1h-0.1L27.4,10.2z M18.8,38.7c-0.1,0-0.1-0.1-0.1-0.2h-0.1c0,0.1,0,0.2-0.1,0.2H16c-0.2,0-0.3-0.1-0.4-0.2V35
	c0,0,0-0.1,0-0.1c0,0,0,0,0,0l-0.1-0.1v-4.6l-0.1-0.3c0-0.1,0.1-0.2,0.1-0.3v-0.8c0-0.1,0-0.1,0.1-0.1v0.1l0.1-0.1h0.1l0.1,0.1
	l0.1-0.1c-0.3,0-0.5,0-0.5-0.1v-0.2c0-0.1,0.1-0.1,0.2-0.2c0-0.1,0-0.1-0.1-0.1c0,0,0,0,0,0c0,0,0,0.1,0,0.1c0,0,0,0,0,0
	c-0.1-0.1-0.1-0.3-0.1-0.4v-0.1c0-0.2,0-0.3,0.1-0.5l-0.1-0.3c0-0.6,0.1-1.2,0.1-1.6V25c0-0.1,0-0.2,0.1-0.2l-0.1-0.2
	c0-0.6,0-1.7-0.1-3.4c0-0.7,0.1-1.1,0.1-1.3l-0.1-0.2c0-0.2,0.1-0.5,0.1-0.7v-0.6c0-0.3,0-0.7-0.1-1.1c0-0.1,0-0.1,0.1-0.2
	c0-0.6-0.1-1.1-0.1-1.4v-3.1c0-0.3,0-0.7,0.1-1.1c-0.1-0.3-0.1-0.5-0.1-0.8l0.1-0.2c-0.1,0-0.1,0-0.1-0.1v-0.3c0-0.1,0-0.3,0.1-0.4
	c0-0.2-0.1-0.3-0.1-0.5V9c0-0.2,0-0.4,0.1-0.4L15.6,8V4c0-0.1,0-0.3,0.1-0.4c0-0.1-0.1-0.3-0.1-0.4V1.4c0-0.2,0.1-0.4,0.3-0.5h1.7
	c0.2,0,0.4,0,0.5-0.1c0.2,0,0.3,0.1,0.5,0.1h0.1c0.1,0,0.1,0,0.2-0.1c0.3,0,0.4,0.2,0.4,0.5v1.9h-0.1c-0.2-0.2-0.4-0.3-0.6-0.4
	c0,0.3,0.3,0.5,0.6,0.7l0.1,0.1v1.3l-0.1,0.2c0.1,0,0.1,0,0.1,0.1v4h-0.3c-0.1,0-0.1,0-0.1,0.1c0.3,0,0.4,0.1,0.4,0.2v4.4
	c0,0.3,0,0.5-0.1,0.8c0,0.2,0.1,0.5,0.1,0.7v2.3c-0.2,0.2-0.4,0.3-0.6,0.4c0.2,0,0.4-0.1,0.5-0.2l0.1,0.1v2.3L19,20.5
	c0.2,0,0.3,0.1,0.3,0.2V26c0,0.1-0.1,0.1-0.2,0.1v0.1c0.1,0,0.2,0,0.2,0.1v0.4l0.1,0.4c-0.1,0-0.1,0.1-0.2,0.1v0.1
	c0.1,0,0.2,0.1,0.2,0.2v0.9c0,0.3,0,0.8-0.1,1.5l-0.1,0.1l-0.2-0.2h-0.2c-0.1,0.1-0.1,0.1-0.2,0.1v0.1c0.2,0.1,0.5,0.2,0.7,0.3h0.1
	v0.1c0,0.1,0,0.1-0.1,0.1c0,0,0,0,0,0c0.1,0.1,0.1,0.3,0.1,0.4V32c0,0.1,0,0.1-0.1,0.1c0,0,0,0,0,0c-0.1-0.1-0.2-0.2-0.2-0.4h-0.1
	c0,0.1-0.1,0.2-0.2,0.2V32c0.2,0,0.5,0.2,0.6,0.3v1.9c0,0.1-0.1,0.1-0.2,0.2h-0.1L19,34.4c0,0.1-0.1,0.1-0.2,0.1
	c-0.1,0-0.1,0-0.2-0.1l-0.1,0.1v0.1c0.2,0,0.5,0.1,0.6,0.3c0.1,0,0.1,0,0.1,0.1c0,0.3,0,0.7-0.1,1.1c0,0.4,0.1,0.7,0.1,0.9
	c-0.1,0-0.1,0.1-0.2,0.2c0.1,0,0.1,0.1,0.2,0.2v0.8c0,0.4-0.1,0.5-0.4,0.5L18.8,38.7z M4.6,38.7c-0.7,0-1.3-0.2-1.9-0.5v-0.1
	c0.1,0,0.3,0,0.4-0.1c0.1,0.1,0.2,0.2,0.2,0.3l0.2,0.1c0,0,0.1,0,0.2-0.1v-0.1H3.3v-0.2c0.2,0,0.3,0,0.3-0.1c0-0.1-0.1-0.2-0.3-0.4
	v-0.1h0.1l0.4,0.3L4,37.4c0-0.2-0.1-0.4-0.2-0.4v-0.1c0.3-0.1,0.4-0.2,0.4-0.3c0-0.2-0.2-0.3-0.4-0.3c0,0.1-0.1,0.1-0.2,0.2
	l-0.2-0.1H3.3v0.1c0.1,0.1,0.2,0.2,0.2,0.4c-0.1,0-0.1,0.1-0.2,0.2c0,0,0.1,0,0.2,0.1c0,0-0.2,0.1-0.5,0.3v-0.1l0.1-0.1L3,37.2H2.8
	l0.1,0.3l-0.1,0.1l0.1,0.1c0,0.1,0,0.1-0.1,0.1c0,0,0,0,0,0H2.6c-0.1-0.3-0.4-0.5-0.6-0.6H1.8c-0.1,0-0.1,0-0.1,0.1
	c0.2,0.1,0.4,0.2,0.6,0.2v0.1c-0.1,0-0.1,0-0.2,0.1v0.1l0.1,0.2l0.1-0.1c0.1,0,0.2,0.1,0.2,0.1c0,0.1,0,0.1-0.1,0.2H2.4
	c-0.3-0.2-0.5-0.4-0.7-0.8c-0.2,0-0.5-0.5-0.7-1.6c0-0.2-0.1-0.5-0.1-0.7v-0.3L1,34.5c0.1,0.1,0.2,0.1,0.4,0.2
	c-0.2-0.1-0.3-0.2-0.4-0.4V34L1,33.9c-0.1,0-0.1,0-0.1-0.1c0,0,0,0,0,0v-0.1c0-0.1,0-0.1,0.1-0.1L1,33.5v-0.1c0.3,0,0.5,0.1,0.6,0.1
	l0.1-0.1l-0.1-0.1c0,0-0.1,0-0.1,0c0,0,0,0,0,0l-0.3-0.1H1.1L1,33.3l-0.1-0.1v-0.2c0-0.1,0-0.2,0.1-0.2l-0.1-0.3v-2.4
	c0-0.2,0.1-0.4,0.3-0.5h3.2c0.1,0,0.2,0.2,0.2,0.6v4.7c0,0.1,0.1,0.1,0.2,0.2h2.7c0.1,0,0.1,0,0.1-0.1c0,0,0,0,0,0v-0.6
	c0.1-0.1,0.1-0.2,0.2-0.3c0-0.1-0.1-0.3-0.2-0.4v-3.6l0.1-0.2c-0.1,0-0.1,0-0.1-0.1c0,0,0,0,0,0v-0.1c0.1,0,0.2,0,0.2-0.1l-0.2-0.2
	v-0.4c0.1,0,0.2,0,0.2-0.1v-0.2H7.6v-1.2c0,0,0-0.1,0-0.1c0,0,0,0,0,0l-0.1-0.1v-1.7c0-0.3,0-0.9-0.1-1.6h0.1l0.2,0.1h0.4l0.1-0.1
	c0.2,0.1,0.3,0.2,0.3,0.4c0.2-0.1,0.3-0.1,0.3-0.2H8.7c0,0-0.1-0.1-0.3-0.3H8.3c-0.2,0-0.3,0-0.5,0.1c-0.3,0-0.6-0.4-1-1.3
	c0,0-0.3-0.5-1-1.6c0.1-0.1,0.2-0.1,0.2-0.2v-0.1H5.9C5.4,20.6,5,20,4.7,19.4C4,18.3,3.4,17.2,2.8,16h0.1c-0.1-0.1-0.1-0.2-0.2-0.2
	c0,0,0,0,0,0.1c0,0,0,0,0,0l-0.5-0.8c0.1,0,0.1,0,0.1-0.1c0,0,0,0,0,0c-0.1,0-0.4-0.3-0.7-0.9V14h0.1l0.2,0.1c0.1,0,0.1,0,0.2-0.1
	l0.1,0.1c0,0,0.1,0,0.2-0.1V14H1.8l-0.3-0.3l-0.2,0.1c-0.4-0.7-0.6-1.5-0.5-2.4c0-0.4,0.1-0.7,0.1-0.8l-0.1-0.2l0.1-0.2
	c0-0.5-0.1-0.9-0.1-1.2c0,0,0,0,0.1,0c0,0,0,0,0,0c0,0-0.1,0-0.1-0.1c0.1,0,0.1-0.1,0.2-0.1V8.8c-0.1,0-0.2,0-0.2-0.1V4.1
	c0,0,0,0,0-0.1c0,0,0,0,0,0L0.9,4c0-0.4,0.1-0.8,0.3-1.2c0.1,0.1,0.2,0.1,0.3,0.1h0.1c0-0.1-0.1-0.2-0.4-0.2C1.4,2,1.9,1.5,2.5,1.2
	l0.2,0.1c0.1,0,0.3,0,0.4-0.1V1.1C3.1,1.1,3,1.1,3,1.1L2.7,1.1V1c0.5-0.2,1-0.3,1.5-0.4h0.2c0.1,0,0.2,0,0.2,0.1l0.3-0.1h1.8
	l0.3-0.1v0.1l0.1-0.1h0.3C8,0.5,8.9,0.7,9.6,1.2v0.1L9.5,1.4c0.7,0,1.3,0.7,1.6,2.1c0,0.1,0.1,0.2,0.1,0.2v2.6l-0.1,0.2l0.1,0.2v1.5
	c0,0.1-0.1,0.2-0.3,0.2H8.2C8.1,8.3,8,8.3,8,8.2c-0.1,0-0.1,0.1-0.2,0.1C7.7,8.2,7.6,8,7.6,7.9V4.1H6.1C6,4,5.8,4,5.7,4.1H5.4
	C5.4,4,5.3,4,5.2,3.9L4.9,4.1H4.5l0.1,0.3v1.3c0,0.2,0,0.5,0.1,0.9c0,0.1-0.1,0.1-0.1,0.2c0,0,0,0.1,0.1,0.1L4.5,7.2v1.1
	c0,0.2,0,0.5,0.1,0.9H4.5c0,0,0,0.1,0,0.1c0,0,0,0,0,0L4.5,9.8v1.3c0,0.1,0,0.1-0.1,0.1c0-0.1-0.1-0.1-0.2-0.1c0,0-0.1,0-0.2,0.1
	v0.1c0.4,0,0.5,0.3,0.5,0.8c0.2,0.5,0.4,1,0.6,1.4c-0.1,0-0.1,0-0.1,0.1c0.3,0,0.4,0.2,0.4,0.5L5.6,14c0.4,0.6,0.8,1.2,1.1,1.9
	c-0.1,0-0.1,0-0.2,0.1V16h0.2v-0.1h0.1c0.2,0.2,1.4,2.2,3.7,6V22c-0.2,0-0.3,0-0.3,0.1h0.2l0.1-0.1c0.4,0.5,0.6,1.1,0.8,1.7v0.1
	C11.2,24,11.1,24,11,24V24c0.2,0,0.3,0.1,0.3,0.2v11.5c-0.1,1.1-0.8,2.1-1.8,2.6c-0.5,0.2-1.1,0.4-1.7,0.4L4.6,38.7z M8.9,24.5
	c0.1,0.1,0.2,0.2,0.2,0.3h0.1l0.1-0.2c-0.1,0-0.1-0.1-0.2-0.2H8.8L8.9,24.5L8.9,24.5z M57.1,38.6c-0.2,0-0.3-0.1-0.3-0.2v-0.8
	c0,0,0-0.1,0.1-0.1c0,0,0-0.1,0-0.1c0,0,0,0,0,0c0-0.9-0.1-1.6-0.1-2v-3.7l0.4,0.1v-0.1l-0.2-0.3v-0.1l0.1-0.2h-0.1
	c0,0-0.1,0-0.2,0.1l-0.1-0.5l0.1-0.1c0-0.5-0.1-0.8-0.1-1.1v-0.1c0-0.1,0.1-0.1,0.2-0.1v-0.1l-0.2-0.2v-6.8l0.1-0.3
	c-0.1,0-0.2-0.3-0.3-1c-0.2-0.6-0.4-1.5-0.5-2.4c-0.2-0.5-0.4-1.1-0.4-1.7c-0.3-0.9-0.5-1.7-0.6-2.6c-0.2-0.7-0.4-1.4-0.5-2.1
	c-0.1-0.4-0.6-2.5-1.4-6.3c-0.4-1.5-0.8-3-1-4.5c-0.1,0-0.1-0.1-0.1-0.4V1c0.1-0.2,0.2-0.3,0.2-0.3h3.3c0.2,0,0.3,0.4,0.4,1.1
	c0,0,0.1,0.1,0.1,0.2c0,0,0,0-0.1,0c0,0,0,0,0,0c-0.1,0-0.2-0.1-0.3-0.4l-0.6-0.2c-0.1,0.1-0.1,0.2-0.2,0.2h-0.3v0.1L54.9,2L55,2
	c0.2,0.1,0.5,0.2,0.8,0.3l0.6,2.8c0.3,1.1,0.5,2.3,0.7,3.4h-0.2c0,0.1,0.1,0.2,0.1,0.2c0,0,0.1,0,0.2-0.1c0.7,2.9,1.1,4.7,1.1,5.3
	h-0.2v0.2L58,14.4l0.5,0.2h0.1v-0.1c-0.1,0-0.2,0-0.2-0.1v-0.2l0.9-4.4c0.1-0.6,0.2-0.9,0.3-0.9C59.6,9,59.7,9,59.8,9l0.1-0.1
	c-0.2,0-0.3,0-0.3-0.1l0.7-3.9h0.1l-0.1-0.1c0.2-0.7,0.4-1.4,0.5-2.1l0.2-0.4c-0.1,0-0.1,0-0.1-0.1c0,0,0,0,0,0
	C61,1.8,61,1.3,61.1,0.9c0,0,0.1-0.1,0.3-0.3c0.1,0,0.3,0,0.4,0.1c0.1,0,0.1,0,0.2-0.1c0,0,0.1,0,0.1,0c0,0,0,0,0,0l0.5-0.1h1.9
	c0.2,0,0.3,0.1,0.3,0.2v0.3c-0.5,2.5-0.8,3.8-0.8,4c-0.1,0-0.1,0-0.2-0.1c-0.1,0.1-0.2,0.1-0.3,0.1c-0.1-0.2-0.4-0.4-0.9-0.4
	c0.2,0.4,0.5,0.5,0.7,0.5h0.1l0.2-0.1h0.3L64,5.2l-0.3,1.1c-0.2,0-0.3-0.1-0.3-0.2h-0.2v0.2h0.1v0.1l-0.1,0.1l0.4,0.1
	c-0.4,1.6-0.7,3.1-1,4.7L61.6,16c-0.1,0.8-0.2,1.1-0.3,1.1l0.1,0.1v0.1l-0.9,4l-0.3-0.1h-0.1c0.2,0.1,0.3,0.2,0.3,0.3s0,0.2-0.1,0.6
	c0,0.4,0.1,0.8,0.1,1.1v0.2c0,0,0,0.1,0,0.1c0,0,0,0,0,0l0.1,0.1V28l-0.1,0.1l-0.1-0.1c0,0-0.1,0-0.2,0.1v0.1c0.2,0,0.3,0,0.3,0.1
	v0.7c-0.2,0.1-0.3,0.2-0.3,0.3c0.2,0,0.3,0.1,0.3,0.2c0,0.3,0,1.3,0.1,3h-0.1l-0.1-0.1v0.2l0.2,0.1v0.7c0,1.2,0,2.9,0.1,5.1
	c0,0.2-0.2,0.3-0.5,0.3L57.1,38.6z M98.3,20.1l-0.2-0.7c0-0.1-0.1-0.1-0.1-0.2c0-0.1,0-0.1,0-0.2l0,0c0,0,0-0.1-0.1-0.1
	c0-0.1,0-0.2,0.1-0.2l0.7-0.3l0,0c0,0.1-0.1,0.2-0.1,0.3c0.1-0.1,0.2-0.2,0.2-0.3l0,0l0.5-0.2l0.1,0c0,0,0,0,0-0.1l1.6-0.6l0,0.1
	c0,0,0,0,0.1,0c0-0.1,0-0.2,0-0.2l1.7-0.6c0.1,0,0.2-0.1,0.3-0.1c0,0,0,0,0.1,0c0,0,0,0-0.1,0c-0.1,0-0.2,0-0.3-0.1l-1.7-0.6
	l-0.1-0.1l0,0l-1.6-0.6c0,0,0,0,0-0.1l-0.1,0l-0.5-0.2l0,0l-0.1,0l0,0L98,15c-0.1,0-0.2-0.1-0.1-0.2c0,0,0,0,0.1-0.1l0,0
	c0-0.1,0-0.1,0-0.2c0-0.1,0.1-0.1,0.1-0.2l0.2-0.7c0.1-0.1,0.2-0.1,0.2,0l0.7,0.2c0.1,0,0.1,0,0.2,0.1c0.1,0,0.1,0,0.2,0l1.6,0.6
	l0.2,0.1c0,0,0.1,0,0.2,0l0.1,0.1c0.1,0,0.1,0.1,0.2,0.1c0.1,0,0.1,0,0.2,0l0.1,0c0,0,0,0,0,0c0,0,0,0,0,0l0.1,0
	c0.1,0,0.2,0.1,0.3,0.1c0.2,0,0.3,0.1,0.4,0.1l1.2,0.4c0.1,0,0.3,0.1,0.5,0.2c0,0,0,0,0.1,0c0.1,0.1,0.3,0.1,0.4,0.2l0.2,0.1
	c0,0,0.1,0,0.1,0c0,0,0,0,0,0l2.1-0.7c0,0,0.1,0,0.1,0l0,0c0,0,0-0.1,0-0.1l0.2-0.1l0.1-0.1c0,0,0,0,0.1,0.1l0,0c0-0.1,0-0.1,0-0.1
	l0.3-0.1c0.1,0,0.3-0.1,0.6-0.2l0,0l0,0.1l0,0.1c0,0,0.1,0,0.1,0.1l0,0c0-0.1,0-0.2,0-0.3l0,0l0,0c0,0,0,0,0.1,0c0,0,0,0,0,0
	c0,0,0.1-0.1,0.2-0.1l0.5-0.2c0,0,0,0,0.1,0c0,0,0,0,0,0c0,0.1-0.1,0.1-0.1,0.1l0,0c0,0,0.1,0,0.1,0.1l0,0c0-0.1,0-0.2,0-0.3
	l0.7-0.3c0,0,0,0,0.1,0l0,0l0,0c0,0,0,0,0.1,0c0,0,0,0,0,0.1l0,0l0,0c0-0.1,0-0.2,0-0.3c0,0,0,0,0,0c0.1,0,0.3-0.1,0.4-0.1
	c0.1-0.1,0.2-0.1,0.3-0.1c0,0,0,0,0.1,0c0,0,0,0,0-0.1l0.3-0.1c0.1-0.1,0.2,0,0.3,0.1l0,0c0,0,0,0,0,0.1l0,0c0,0,0.1,0,0.1,0l0.3,1
	c0,0.1,0,0.1,0,0.2l-1.3,0.5c0,0,0,0,0,0l0,0l-1.8,0.6l-0.1,0.1c0,0-0.1,0-0.1,0l-0.3,0.1c0,0,0,0-0.1,0c0,0,0,0,0,0l0,0l0,0l0,0
	l0,0l-0.1,0c0,0.1,0.1,0.2,0,0.2l-0.1,0c0,0-0.1,0-0.1-0.1c0,0,0,0,0,0c0,0,0,0,0,0c0,0,0,0,0,0c0,0,0,0,0,0c0,0-0.1,0.1-0.1,0.1
	l0,0c-0.1,0-0.1,0-0.2,0l-0.1,0.1c-0.2,0.1-0.5,0.1-0.6,0.2l-0.1,0c0,0-0.1,0-0.1,0l0,0l0,0c0,0,0,0,0.1,0l0.1,0
	c0.2,0.1,0.4,0.1,0.6,0.2l0.1,0.1c0.1,0,0.1,0,0.2,0l0,0c0.1,0,0.1,0.1,0.1,0.1c0,0,0.1,0,0,0l0,0l0.1,0l0,0.1l0,0l0,0
	c0,0,0,0,0.1,0c0,0,0,0,0,0l0.3,0.1c0,0,0.1,0,0.1,0l0.1,0.1l1.8,0.6l0,0c0,0,0,0,0,0l1.3,0.5c0,0,0.1,0.1,0,0.2l-0.3,1
	c0,0,0,0-0.1,0l0,0c0,0,0.1,0,0,0.1l0,0c0,0.1-0.1,0.1-0.3,0.1l-0.3-0.1c0,0,0-0.1,0-0.1c-0.1,0-0.1,0-0.1,0c-0.1,0-0.2-0.1-0.3-0.1
	c-0.2-0.1-0.3-0.1-0.4-0.1c0,0,0,0,0,0l-0.2-0.1c0,0-0.1,0-0.1,0l-0.7-0.3l-0.1,0l-0.5-0.2c-0.1,0-0.1-0.1-0.2-0.1c0,0,0,0,0,0
	c0,0,0,0,0,0l0,0l0,0l-0.1-0.1l0,0c-0.3-0.1-0.4-0.1-0.6-0.2l-0.3-0.1c0,0,0,0,0-0.1l0,0c0,0,0,0.1-0.1,0.1l-0.1-0.1l-0.2-0.1
	c0,0,0,0,0-0.1l0,0c0,0,0,0.1-0.1,0l-2.1-0.7c0,0,0,0,0,0l-0.1,0l-0.2,0.1c-0.1,0-0.3,0.1-0.4,0.2c0,0,0,0-0.1,0
	c-0.2,0.1-0.4,0.2-0.5,0.2l-1.2,0.4c-0.1,0-0.3,0.1-0.4,0.1c-0.1,0.1-0.2,0.1-0.3,0.1l-0.1,0c0,0,0,0,0,0.1c0,0,0,0,0,0l-0.1,0
	c0,0-0.1,0-0.2,0c-0.1,0-0.1,0.1-0.2,0.1l-0.1,0.1c-0.1,0-0.1,0-0.2,0l-0.2,0.1l-1.6,0.6c-0.1,0-0.1,0-0.2,0c0,0-0.1,0.1-0.2,0.1
	l-0.7,0.2c0,0-0.1,0-0.1,0C98.4,20.2,98.3,20.2,98.3,20.1L98.3,20.1z M103.1,10.1c0-1.2,1-2.2,2.2-2.2c1.2,0,2.2,1,2.2,2.2
	s-1,2.2-2.2,2.2l0,0C104.1,12.3,103.1,11.3,103.1,10.1L103.1,10.1z"/>
</svg>
