<?xml version="1.0" encoding="utf-8"?>
<!-- Generator: Adobe Illustrator 27.4.1, SVG Export Plug-In . SVG Version: 6.00 Build 0)  -->
<svg version="1.1" id="Capa_1" xmlns="http://www.w3.org/2000/svg" xmlns:xlink="http://www.w3.org/1999/xlink" x="0px" y="0px"
	 viewBox="0 0 95.1 22.6" style="enable-background:new 0 0 95.1 22.6;" xml:space="preserve">
<style type="text/css">
	.st0{fill:#2E2E2E;}
</style>
<g id="Grupo_3577" transform="translate(-213 -4077.079)">
	<g id="Grupo_3553" transform="translate(259.175 4096.746)">
		<path id="App_Store" class="st0" d="M4.1,1.4H2.5V-9H4v1.3h0c0.5-0.9,1.5-1.4,2.5-1.4c2,0,3.3,1.6,3.3,4c0,1-0.3,2.1-0.9,2.9
			C8.4-1.5,7.5-1.1,6.6-1.1c-1,0.1-2-0.5-2.5-1.4h0L4.1,1.4L4.1,1.4z M6.2-7.7c-1.2,0-2.1,1.1-2.1,2.7c0,1.6,0.8,2.7,2.1,2.7
			c1.3,0,2.1-1,2.1-2.7S7.4-7.7,6.2-7.7L6.2-7.7z M-4.6,1.4h-1.6V-9h1.5v1.3h0c0.5-0.9,1.5-1.4,2.5-1.4c2,0,3.3,1.6,3.3,4
			c0,1-0.3,2.1-0.9,2.9c-0.6,0.7-1.4,1.1-2.4,1.1c-1,0.1-2-0.5-2.5-1.4h0L-4.6,1.4L-4.6,1.4z M-2.6-7.7c-1.2,0-2.1,1.1-2.1,2.7
			s0.8,2.7,2.1,2.7c1.3,0,2.1-1,2.1-2.7S-1.3-7.7-2.6-7.7L-2.6-7.7z M18.4-1c-2.3,0-3.8-1.2-3.9-3.1h1.6c0.1,1,1.1,1.7,2.5,1.7
			c1.3,0,2.2-0.7,2.2-1.6c0-0.8-0.6-1.3-1.9-1.6l-1.3-0.3c-1.9-0.5-2.8-1.3-2.8-2.8c0-1.8,1.5-3,3.8-3c2.2,0,3.7,1.2,3.7,3h-1.6
			c-0.1-1-0.9-1.7-2.2-1.7c-1.2,0-2.1,0.6-2.1,1.5c0,0.7,0.5,1.2,1.9,1.5L19.4-7c2.1,0.5,3,1.4,3,2.9c0,0.9-0.4,1.7-1.1,2.3
			C20.5-1.3,19.5-1,18.4-1L18.4-1z M45.5-1.1c-2.3,0-3.7-1.5-3.7-4s1.4-4,3.6-4c1,0,1.9,0.3,2.5,1c0.7,0.8,1,1.8,0.9,2.8v0.5h-5.5
			v0.1C43.4-4,43.6-3.4,44-3c0.4,0.4,1,0.6,1.5,0.6c0.8,0.1,1.5-0.4,1.8-1.1h1.5C48.5-2,47.1-1,45.5-1.1L45.5-1.1z M45.5-7.8
			c-1.1,0-2,0.9-2,2c0,0,0,0,0,0v0h3.9c0-0.5-0.2-1.1-0.6-1.5C46.5-7.6,46-7.8,45.5-7.8L45.5-7.8z M32-1.1c-1,0-2-0.4-2.7-1.1
			c-0.7-0.8-1-1.8-1-2.9c0-1.1,0.3-2.1,1-2.9c1.5-1.4,3.9-1.4,5.4,0c0.7,0.8,1,1.9,1,2.9c0.1,1.1-0.3,2.1-1,2.9
			C34-1.5,33-1.1,32-1.1L32-1.1z M32-7.8c-1.3,0-2.1,1-2.1,2.7s0.8,2.7,2.1,2.7c1.3,0,2.1-1,2.1-2.7S33.3-7.8,32-7.8z M26.5-1.1
			c-1.6,0-2.2-0.6-2.2-2.1v-4.5h-1.1V-9h1.1v-1.8h1.6V-9h1.5v1.2h-1.5v4.3c0,0.7,0.3,1,1,1c0.2,0,0.4,0,0.5,0v1.2
			C27.1-1.2,26.8-1.1,26.5-1.1L26.5-1.1z M-14.9-1.2h-1.7l3.7-10.3h1.7l3.7,10.3H-9L-10-4h-3.9L-14.9-1.2z M-12-9.8l-1.5,4.5h3.1
			L-12-9.8L-12-9.8z M38.7-1.2h-1.6V-9h1.5v1.3h0c0.2-0.8,1-1.4,1.9-1.4c0.2,0,0.4,0,0.5,0v1.5c-0.2-0.1-0.5-0.1-0.7-0.1
			c-0.9,0-1.7,0.7-1.7,1.6c0,0.1,0,0.1,0,0.2V-1.2z"/>
	</g>
	<path id="logo" class="st0" d="M218.9,4099.7c-1.4,0-2.5-1.4-3.5-2.9c-1.1-1.6-1.9-3.5-2.2-5.5c-0.4-2-0.2-4.1,0.8-5.9
		c1-1.7,2.7-2.8,4.7-2.8h0.1c0.8,0,1.6,0.2,2.3,0.6c0.4,0.2,0.9,0.3,1.4,0.4c0.5-0.1,0.9-0.2,1.4-0.4c0.8-0.4,1.7-0.6,2.6-0.7
		c0.1,0,0.2,0,0.4,0c1.7,0.1,3.2,0.9,4.2,2.2l0,0c-1.5,0.9-2.4,2.5-2.4,4.3c0,2,1.2,3.8,3,4.6l0,0l0,0c-0.4,1.1-0.9,2.2-1.6,3.2
		c-0.9,1.3-1.9,2.7-3.5,2.8h-0.1c-0.6,0-1.2-0.2-1.7-0.4c-0.6-0.3-1.3-0.5-2-0.5c-0.7,0-1.4,0.2-2.1,0.5
		C220.1,4099.5,219.6,4099.7,218.9,4099.7L218.9,4099.7z M222.5,4082.3c-0.1,0-0.2,0-0.2,0c-0.1-1.3,0.3-2.5,1.2-3.5
		c0.9-1,2.1-1.6,3.3-1.7c0.1,1.3-0.3,2.6-1.2,3.6C224.8,4081.7,223.7,4082.2,222.5,4082.3L222.5,4082.3z"/>
</g>
</svg>
