<?xml version="1.0" encoding="utf-8"?>
<!-- Generator: Adobe Illustrator 27.4.1, SVG Export Plug-In . SVG Version: 6.00 Build 0)  -->
<svg version="1.1" id="Capa_1" xmlns="http://www.w3.org/2000/svg" xmlns:xlink="http://www.w3.org/1999/xlink" x="0px" y="0px"
	 viewBox="0 0 94.4 20.8" style="enable-background:new 0 0 94.4 20.8;" xml:space="preserve">
<style type="text/css">
	.st0{clip-path:url(#SVGID_00000093178908158848081010000012042034114828855736_);}
	.st1{fill:#2E2E2E;}
</style>
<g id="Componente_16_1" transform="translate(0.5 0.5)">
	<g id="Grupo_3556" transform="translate(47.069 19.743)">
		<g>
			<defs>
				<path id="SVGID_1_" d="M8.7-2.7C8.3-3,8-3.4,7.8-3.9l1.3-0.6C9.2-4.2,9.3-4,9.5-3.8c0.3,0.4,0.8,0.6,1.3,0.6
					c0.5,0,1-0.2,1.3-0.6c0.3-0.4,0.4-0.9,0.4-1.3v-0.5c-1,1.1-2.7,1.1-3.8,0C8.6-5.7,8.5-5.7,8.5-5.8c-1.2-1.3-1.2-3.3,0-4.7
					c1-1.2,2.7-1.3,3.8-0.3c0,0,0.1,0.1,0.1,0.1l0,0v-0.6h1.3v5.9c0.1,1.1-0.4,2.2-1.3,2.9c-0.5,0.4-1.2,0.6-1.8,0.6
					C9.9-2,9.3-2.2,8.7-2.7z M41.8-2.4l1.3-3.2L40.8-11h1.3l1.7,3.9l1.7-3.9h1.3l-3.6,8.6L41.8-2.4z M35.4-5.4
					c-0.4-0.4-0.6-0.9-0.6-1.5c0-0.5,0.2-0.9,0.5-1.3c0.6-0.5,1.4-0.8,2.2-0.8c0.5,0,1,0.1,1.4,0.3c0-0.7-0.6-1.3-1.3-1.3
					c0,0,0,0,0,0h-0.1c-0.6,0-1.1,0.3-1.3,0.9L35-9.6c0.4-1,1.4-1.6,2.5-1.6c0.8,0,1.5,0.2,2.1,0.8C40-9.8,40.2-9,40.2-8.3V-5h-1.3
					v-0.6c-0.2,0.2-0.4,0.4-0.7,0.6c-0.3,0.2-0.7,0.2-1.1,0.2C36.4-4.8,35.9-5,35.4-5.4L35.4-5.4z M-6.7-8.2c0-1.8,1.4-3.3,3.2-3.3
					c0,0,0,0,0,0h0.1c1.8,0,3.3,1.5,3.3,3.3c0,1.8-1.4,3.3-3.2,3.3h-0.1C-5.2-4.9-6.7-6.3-6.7-8.2C-6.7-8.1-6.7-8.1-6.7-8.2
					C-6.7-8.2-6.7-8.2-6.7-8.2L-6.7-8.2z M0.4-8.2c0-1.8,1.4-3.3,3.2-3.3c0,0,0,0,0,0h0.1C5.5-11.5,7-10,7-8.2
					c0,1.8-1.4,3.3-3.2,3.3H3.7C1.9-4.9,0.4-6.4,0.4-8.2L0.4-8.2z M-15.6-6.5c-2-2-1.9-5.3,0.1-7.3c1-1,2.3-1.5,3.6-1.5
					c1.3,0,2.5,0.5,3.5,1.4l-0.9,1c-1.4-1.4-3.6-1.4-5,0c0,0,0,0-0.1,0.1c-1.4,1.5-1.4,3.8,0,5.3c1.3,1.5,3.6,1.6,5.1,0.2
					c0,0,0.1-0.1,0.1-0.1c0.4-0.5,0.7-1.1,0.7-1.7h-3.3v-1.4h4.7c0.1,0.4,0.1,0.7,0.1,1.1c0,1.2-0.4,2.3-1.3,3.2
					c-0.9,0.9-2.1,1.4-3.4,1.3C-13.2-4.9-14.6-5.5-15.6-6.5L-15.6-6.5z M17.8-5.9c-1.2-1.4-1.2-3.4,0-4.7c1.1-1.2,2.9-1.3,4.1-0.2
					c0.1,0.1,0.1,0.1,0.2,0.2c0.4,0.4,0.7,1,0.9,1.5l-4.3,1.8c0.3,0.6,0.9,1,1.6,1c0.7,0,1.3-0.3,1.7-0.9L23-6.5
					c-0.2,0.1-0.3,0.3-0.4,0.5C21.3-4.7,19.1-4.6,17.8-5.9L17.8-5.9z M26-5v-8.8h2.8c1.5-0.1,2.9,1.1,3,2.6c0,1.5-1.2,2.6-2.7,2.6
					h-1.7v3.5L26-5L26-5z M32.6-5v-8.8H34V-5H32.6z M14.8-5.1v-9.8h1.4v9.8H14.8z M38.9-7.6c-0.4-0.2-0.8-0.3-1.3-0.3
					c-0.9,0-1.5,0.5-1.5,1S36.7-6,37.2-6C38.1-6,38.8-6.7,38.9-7.6L38.9-7.6z M-1.6-8.2c0.1-1-0.7-1.9-1.8-2c0,0,0,0,0,0h-0.1
					c-1,0-1.8,0.9-1.8,1.9c0,0,0,0,0,0v0.1c-0.1,1,0.7,1.9,1.8,2c0,0,0,0,0,0h0.1C-2.4-6.3-1.6-7.2-1.6-8.2L-1.6-8.2z M5.5-8.2
					c0.1-1-0.7-1.9-1.8-2c0,0,0,0,0,0H3.7c-1,0-1.8,0.9-1.8,1.9c0,0,0,0,0,0v0.1c-0.1,1,0.7,1.9,1.8,2c0,0,0,0,0,0h0.1
					C4.7-6.3,5.6-7.1,5.5-8.2C5.5-8.1,5.5-8.1,5.5-8.2L5.5-8.2L5.5-8.2z M12.6-7.7c0-0.1,0-0.2,0.1-0.2l0,0v-0.7
					c0-0.1-0.1-0.2-0.1-0.3c-0.2-0.8-0.9-1.3-1.7-1.3c-1,0.1-1.8,1-1.7,2c-0.1,1,0.7,1.9,1.8,2h0C11.6-6.2,12.2-6.8,12.6-7.7
					L12.6-7.7z M18.3-8.4l2.9-1.3c-0.2-0.4-0.7-0.7-1.2-0.7C19.1-10.2,18.3-9.4,18.3-8.4L18.3-8.4z M30.4-11c0-0.8-0.6-1.4-1.4-1.3
					c0,0-0.1,0-0.1,0h-1.6v2.8H29C29.8-9.6,30.4-10.3,30.4-11L30.4-11z"/>
			</defs>
			<clipPath id="SVGID_00000086655411179968120170000005508046986969008043_">
				<use xlink:href="#SVGID_1_"  style="overflow:visible;"/>
			</clipPath>
			<g id="Grupo_3555" style="clip-path:url(#SVGID_00000086655411179968120170000005508046986969008043_);">
				<g id="Grupo_91" transform="translate(-4.15 -4.142)">
					<g id="Trazado_137">
						<path class="st1" d="M-17.1-15.2h72.2V6.4h-72.2V-15.2z"/>
					</g>
				</g>
			</g>
		</g>
	</g>
	<g id="Grupo_3557" transform="translate(16.592 14.721)">
		<g id="Trazado_894">
			<path class="st1" d="M1.9-5.5l-4.8-2.6l-3.4,3.4l3.4,3.3l4.8-2.6c0.3-0.1,0.5-0.4,0.5-0.7C2.4-5.1,2.2-5.4,1.9-5.5z"/>
		</g>
		<g id="Trazado_895">
			<path class="st1" d="M-6.9-5.4l3.2-3.2L-15.3-15c-0.3-0.2-0.6-0.3-0.9-0.3c-0.2,0-0.3,0.1-0.5,0.2L-6.9-5.4z"/>
		</g>
		<g id="Trazado_896">
			<path class="st1" d="M-17.1-14.3C-17.1-14.3-17.1-14.3-17.1-14.3l0,18.9c0,0.1,0,0.1,0,0.2l9.6-9.6L-17.1-14.3z"/>
		</g>
		<g id="Trazado_897">
			<path class="st1" d="M-6.9-4.2l-9.7,9.7c0.1,0.1,0.3,0.1,0.4,0.1c0.3,0,0.6-0.1,0.9-0.3l11.6-6.4L-6.9-4.2z"/>
		</g>
	</g>
</g>
</svg>
